<?xml version="1.0" encoding="UTF-8" standalone="no"?>
<!DOCTYPE svg PUBLIC "-//W3C//DTD SVG 1.1//EN" "http://www.w3.org/Graphics/SVG/1.1/DTD/svg11.dtd">
<svg width="100%" height="100%" viewBox="0 0 730 156" version="1.1" xmlns="http://www.w3.org/2000/svg" xmlns:xlink="http://www.w3.org/1999/xlink" xml:space="preserve" xmlns:serif="http://www.serif.com/" style="fill-rule:evenodd;clip-rule:evenodd;stroke-linecap:round;stroke-miterlimit:10;">
    <g id="Background">
        <rect x="-352.481" y="-330.274" width="2298.81" height="1851.74" style="fill:#fff;"/>
    </g>
    <g id="eth1-chain" serif:id="eth1 chain">
        <g id="eth1-block" serif:id="eth1 block">
        </g>
        <g id="eth1-block1" serif:id="eth1 block">
        </g>
        <g id="eth1-block2" serif:id="eth1 block">
        </g>
        <g id="eth1-block3" serif:id="eth1 block">
        </g>
        <g id="eth1-block4" serif:id="eth1 block">
        </g>
        <g id="eth1-block5" serif:id="eth1 block">
        </g>
        <g id="eth1-block6" serif:id="eth1 block">
        </g>
        <g id="eth1-genesis" serif:id="eth1 genesis">
        </g>
        <g id="eth1-fin-block" serif:id="eth1 fin block">
        </g>
        <g id="eth1-fin-block1" serif:id="eth1 fin block">
        </g>
        <g id="eth1-block7" serif:id="eth1 block">
        </g>
        <g id="sync-line-1" serif:id="sync line 1">
        </g>
    </g>
    <g id="beacon-chain-2" serif:id="beacon chain 2">
        <g>
            <rect x="369.817" y="27.851" width="35.207" height="34.172" style="fill:#a6a6a6;"/>
            <path d="M405.91,27.851C405.91,27.362 405.514,26.965 405.025,26.965L369.817,26.965C369.328,26.965 368.931,27.362 368.931,27.851L368.931,62.023C368.931,62.512 369.328,62.909 369.817,62.909L405.025,62.909C405.514,62.909 405.91,62.512 405.91,62.023L405.91,27.851ZM404.139,28.737L404.139,61.137C404.139,61.137 370.703,61.137 370.703,61.137C370.703,61.137 370.703,28.737 370.703,28.737L404.139,28.737Z"/>
            <path d="M347.807,47.749L345.149,45.091L347.807,42.434" style="fill:none;stroke:#000;stroke-width:1.77px;"/>
            <path d="M369.825,45.091L345.149,45.091" style="fill:none;stroke:#000;stroke-width:1.77px;stroke-linejoin:round;stroke-miterlimit:1.5;"/>
        </g>
        <g id="eth2-block" serif:id="eth2 block">
            <g>
                <path d="M431.068,44.937L405.139,44.937" style="fill:none;"/>
                <path d="M409.049,47.594L406.392,44.937L409.049,42.279" style="fill:none;stroke:#000;stroke-width:1.77px;"/>
                <path d="M431.068,44.937L406.392,44.937" style="fill:none;stroke:#000;stroke-width:1.77px;stroke-linejoin:round;stroke-miterlimit:1.5;"/>
            </g>
            <rect x="431.068" y="27.851" width="35.207" height="34.172" style="fill:#ebebeb;stroke:#000;stroke-width:1.77px;stroke-linejoin:round;stroke-miterlimit:1.5;"/>
        </g>
        <g id="eth2-block1" serif:id="eth2 block">
            <g>
                <path d="M492.204,44.937L466.276,44.937" style="fill:none;"/>
                <path d="M470.186,47.594L467.528,44.937L470.186,42.279" style="fill:none;stroke:#000;stroke-width:1.77px;"/>
                <path d="M492.204,44.937L467.528,44.937" style="fill:none;stroke:#000;stroke-width:1.77px;stroke-linejoin:round;stroke-miterlimit:1.5;"/>
            </g>
            <rect x="492.204" y="27.851" width="35.207" height="34.172" style="fill:#ebebeb;stroke:#000;stroke-width:1.77px;stroke-linejoin:round;stroke-miterlimit:1.5;"/>
        </g>
        <g id="eth2-end-block" serif:id="eth2 end block">
            <rect x="567.091" y="27.851" width="35.207" height="34.172" style="fill:#ebebeb;stroke:#000;stroke-width:1.77px;stroke-linejoin:round;stroke-miterlimit:1.5;"/>
            <g>
                <path d="M565.841,44.937L545.841,44.927" style="fill:none;stroke:#000;stroke-width:1.88px;stroke-linejoin:round;stroke-miterlimit:1.5;stroke-dasharray:1.88,3.75,0,0;"/>
                <path d="M531.744,47.584L529.087,44.927L531.744,42.269" style="fill:none;stroke:#000;stroke-width:1.77px;"/>
                <path d="M543.513,44.927L529.087,44.927" style="fill:none;stroke:#000;stroke-width:1.77px;stroke-linejoin:round;stroke-miterlimit:1.5;"/>
            </g>
        </g>
        <g transform="matrix(1.77165,0,0,1.77165,-421.249,-128.943)">
            <g transform="matrix(12,0,0,12,447.735,126.191)">
                <path d="M0.079,-0.74L0.188,-0.74L0.188,-0.428L0.194,-0.428C0.209,-0.459 0.23,-0.484 0.255,-0.502C0.28,-0.519 0.312,-0.528 0.35,-0.528C0.411,-0.528 0.459,-0.505 0.495,-0.46C0.531,-0.415 0.549,-0.347 0.549,-0.258C0.549,-0.169 0.531,-0.101 0.495,-0.056C0.459,-0.011 0.411,0.012 0.35,0.012C0.312,0.012 0.28,0.003 0.255,-0.015C0.23,-0.032 0.209,-0.057 0.194,-0.088L0.188,-0.088L0.188,-0L0.079,-0L0.079,-0.74ZM0.305,-0.077C0.346,-0.077 0.378,-0.09 0.401,-0.115C0.423,-0.14 0.434,-0.174 0.434,-0.216L0.434,-0.3C0.434,-0.342 0.423,-0.376 0.401,-0.401C0.378,-0.426 0.346,-0.439 0.305,-0.439C0.289,-0.439 0.274,-0.437 0.26,-0.433C0.246,-0.429 0.234,-0.423 0.223,-0.415C0.212,-0.407 0.204,-0.397 0.198,-0.386C0.191,-0.374 0.188,-0.36 0.188,-0.344L0.188,-0.172C0.188,-0.156 0.191,-0.142 0.198,-0.131C0.204,-0.119 0.212,-0.109 0.223,-0.101C0.234,-0.093 0.246,-0.087 0.26,-0.083C0.274,-0.079 0.289,-0.077 0.305,-0.077Z" style="fill-rule:nonzero;"/>
            </g>
            <g transform="matrix(6.996,0,0,6.996,454.935,130.187)">
                <path d="M0.086,-0L0.086,-0.698L0.535,-0.698L0.535,-0.604L0.198,-0.604L0.198,-0.401L0.504,-0.401L0.504,-0.307L0.198,-0.307L0.198,-0L0.086,-0Z" style="fill-rule:nonzero;"/>
            </g>
            <g transform="matrix(6.996,0,0,6.996,459.133,130.187)">
                <path d="M0.251,-0.062L0.251,-0.261L0.062,-0.261L0.062,-0.35L0.251,-0.35L0.251,-0.549L0.349,-0.549L0.349,-0.35L0.538,-0.35L0.538,-0.261L0.349,-0.261L0.349,-0.062L0.251,-0.062Z" style="fill-rule:nonzero;"/>
            </g>
            <g transform="matrix(6.996,0,0,6.996,463.33,130.187)">
                <path d="M0.331,-0C0.286,-0 0.252,-0.012 0.231,-0.037C0.21,-0.061 0.199,-0.092 0.199,-0.131L0.199,-0.428L0.04,-0.428L0.04,-0.516L0.153,-0.516C0.172,-0.516 0.186,-0.52 0.194,-0.528C0.202,-0.535 0.206,-0.549 0.206,-0.569L0.206,-0.698L0.308,-0.698L0.308,-0.516L0.528,-0.516L0.528,-0.428L0.308,-0.428L0.308,-0.088L0.528,-0.088L0.528,-0L0.331,-0Z" style="fill-rule:nonzero;"/>
            </g>
        </g>
        <g id="eth2-block2" serif:id="eth2 block">
            <rect x="111.599" y="27.851" width="35.207" height="34.172" style="fill:#a6a6a6;stroke:#000;stroke-width:1.77px;stroke-linejoin:round;stroke-miterlimit:1.5;"/>
            <g>
                <path d="M111.719,44.937L85.79,44.937" style="fill:none;"/>
                <path d="M89.701,47.594L87.043,44.937L89.701,42.279" style="fill:none;stroke:#000;stroke-width:1.77px;"/>
                <path d="M111.719,44.937L87.043,44.937" style="fill:none;stroke:#000;stroke-width:1.77px;stroke-linejoin:round;stroke-miterlimit:1.5;"/>
            </g>
        </g>
        <g id="eth2-block3" serif:id="eth2 block">
            <rect x="247.439" y="27.851" width="35.207" height="34.172" style="fill:#a6a6a6;stroke:#000;stroke-width:1.77px;stroke-linejoin:round;stroke-miterlimit:1.5;"/>
            <g>
                <path d="M247.559,44.937L221.63,44.937" style="fill:none;"/>
                <path d="M225.54,47.594L222.883,44.937L225.54,42.279" style="fill:none;stroke:#000;stroke-width:1.77px;"/>
                <path d="M247.559,44.937L222.883,44.937" style="fill:none;stroke:#000;stroke-width:1.77px;stroke-linejoin:round;stroke-miterlimit:1.5;"/>
            </g>
        </g>
        <g id="eth2-block4" serif:id="eth2 block">
            <rect x="308.689" y="27.851" width="35.207" height="34.172" style="fill:#a6a6a6;stroke:#000;stroke-width:1.77px;stroke-linejoin:round;stroke-miterlimit:1.5;"/>
            <g>
                <path d="M308.809,44.937L282.88,44.937" style="fill:none;"/>
                <path d="M286.79,47.594L284.133,44.937L286.79,42.279" style="fill:none;stroke:#000;stroke-width:1.77px;"/>
                <path d="M308.809,44.937L284.133,44.937" style="fill:none;stroke:#000;stroke-width:1.77px;stroke-linejoin:round;stroke-miterlimit:1.5;"/>
            </g>
        </g>
        <g id="sync-line" serif:id="sync line">
            <path d="M560.417,86.078L564.167,89.828L560.417,93.578" style="fill:none;stroke:#000;stroke-width:2.5px;"/>
            <path d="M415.06,89.828C415.06,89.828 547.278,89.828 564.167,89.828" style="fill:none;stroke:#000;stroke-width:2.5px;stroke-linejoin:round;stroke-miterlimit:1.5;"/>
        </g>
        <g id="eth2-block5" serif:id="eth2 block">
            <rect x="49.999" y="27.851" width="35.207" height="34.172" style="fill:#a6a6a6;stroke:#000;stroke-width:1.77px;stroke-linejoin:round;stroke-miterlimit:1.5;"/>
            <g>
                <path d="M50.119,44.937L24.19,44.937" style="fill:none;"/>
                <path d="M28.101,47.594L25.443,44.937L28.101,42.279" style="fill:none;stroke:#000;stroke-width:1.77px;"/>
                <path d="M50.119,44.937L25.443,44.937" style="fill:none;stroke:#000;stroke-width:1.77px;stroke-linejoin:round;stroke-miterlimit:1.5;"/>
            </g>
        </g>
        <g id="proc">
            <path d="M465.417,120.181L461.812,121.765L460.228,118.159" style="fill:none;stroke:#c33;stroke-width:1.88px;"/>
            <path d="M450.607,20.5C465.493,-2.151 506.643,6.268 461.812,121.765" style="fill:none;stroke:#c33;stroke-width:1.88px;stroke-linejoin:round;stroke-miterlimit:1.5;stroke-dasharray:1.88,1.88;"/>
            <g transform="matrix(1.25,0,0,1.25,-455.065,1.75)">
                <g transform="matrix(10,0,0,10,684.206,111.178)">
                    <path d="M0.059,-0.516L0.207,-0.516L0.207,-0.422L0.214,-0.422C0.227,-0.453 0.245,-0.478 0.269,-0.498C0.293,-0.518 0.326,-0.528 0.367,-0.528C0.396,-0.528 0.422,-0.523 0.446,-0.512C0.469,-0.501 0.49,-0.485 0.507,-0.463C0.524,-0.441 0.537,-0.413 0.547,-0.379C0.556,-0.345 0.561,-0.305 0.561,-0.258C0.561,-0.211 0.556,-0.171 0.547,-0.137C0.537,-0.103 0.524,-0.075 0.507,-0.053C0.49,-0.031 0.469,-0.015 0.446,-0.004C0.422,0.007 0.396,0.012 0.367,0.012C0.326,0.012 0.293,0.002 0.269,-0.018C0.245,-0.037 0.227,-0.063 0.214,-0.094L0.207,-0.094L0.207,0.2L0.059,0.2L0.059,-0.516ZM0.303,-0.103C0.336,-0.103 0.362,-0.113 0.38,-0.134C0.398,-0.154 0.407,-0.182 0.407,-0.218L0.407,-0.298C0.407,-0.334 0.398,-0.362 0.38,-0.383C0.362,-0.403 0.336,-0.413 0.303,-0.413C0.277,-0.413 0.255,-0.407 0.236,-0.394C0.217,-0.381 0.207,-0.361 0.207,-0.334L0.207,-0.182C0.207,-0.155 0.217,-0.135 0.236,-0.122C0.255,-0.109 0.277,-0.103 0.303,-0.103Z" style="fill:#c33;fill-rule:nonzero;"/>
                </g>
                <g transform="matrix(10,0,0,10,690.206,111.178)">
                    <path d="M0.074,-0.115L0.193,-0.115L0.193,-0.401L0.074,-0.401L0.074,-0.516L0.341,-0.516L0.341,-0.37L0.348,-0.37C0.353,-0.389 0.359,-0.407 0.368,-0.425C0.376,-0.442 0.387,-0.458 0.4,-0.472C0.413,-0.485 0.428,-0.496 0.447,-0.504C0.466,-0.512 0.488,-0.516 0.513,-0.516L0.562,-0.516L0.562,-0.38L0.452,-0.38C0.415,-0.38 0.388,-0.369 0.369,-0.348C0.35,-0.326 0.341,-0.299 0.341,-0.268L0.341,-0.115L0.511,-0.115L0.511,-0L0.074,-0L0.074,-0.115Z" style="fill:#c33;fill-rule:nonzero;"/>
                </g>
                <g transform="matrix(10,0,0,10,696.206,111.178)">
                    <path d="M0.3,0.012C0.26,0.012 0.224,0.006 0.192,-0.007C0.16,-0.019 0.133,-0.037 0.111,-0.06C0.088,-0.083 0.071,-0.112 0.059,-0.145C0.047,-0.178 0.041,-0.216 0.041,-0.258C0.041,-0.3 0.047,-0.338 0.059,-0.371C0.071,-0.404 0.088,-0.433 0.111,-0.456C0.133,-0.479 0.16,-0.497 0.192,-0.51C0.224,-0.522 0.26,-0.528 0.3,-0.528C0.34,-0.528 0.376,-0.522 0.408,-0.51C0.44,-0.497 0.467,-0.479 0.49,-0.456C0.512,-0.433 0.529,-0.404 0.541,-0.371C0.553,-0.338 0.559,-0.3 0.559,-0.258C0.559,-0.216 0.553,-0.178 0.541,-0.145C0.529,-0.112 0.512,-0.083 0.49,-0.06C0.467,-0.037 0.44,-0.019 0.408,-0.007C0.376,0.006 0.34,0.012 0.3,0.012ZM0.3,-0.098C0.333,-0.098 0.359,-0.108 0.378,-0.129C0.397,-0.15 0.406,-0.179 0.406,-0.217L0.406,-0.299C0.406,-0.337 0.397,-0.366 0.378,-0.387C0.359,-0.408 0.333,-0.418 0.3,-0.418C0.267,-0.418 0.241,-0.408 0.222,-0.387C0.203,-0.366 0.194,-0.337 0.194,-0.299L0.194,-0.217C0.194,-0.179 0.203,-0.15 0.222,-0.129C0.241,-0.108 0.267,-0.098 0.3,-0.098Z" style="fill:#c33;fill-rule:nonzero;"/>
                </g>
                <g transform="matrix(10,0,0,10,702.206,111.178)">
                    <path d="M0.321,0.012C0.28,0.012 0.244,0.006 0.212,-0.007C0.179,-0.019 0.152,-0.037 0.13,-0.06C0.107,-0.083 0.09,-0.112 0.078,-0.145C0.066,-0.178 0.06,-0.216 0.06,-0.258C0.06,-0.3 0.066,-0.338 0.078,-0.371C0.09,-0.404 0.107,-0.433 0.13,-0.456C0.152,-0.479 0.179,-0.497 0.212,-0.51C0.244,-0.522 0.28,-0.528 0.32,-0.528C0.377,-0.528 0.422,-0.517 0.457,-0.494C0.491,-0.47 0.517,-0.44 0.535,-0.402L0.421,-0.34C0.412,-0.36 0.4,-0.377 0.385,-0.39C0.37,-0.403 0.348,-0.41 0.32,-0.41C0.286,-0.41 0.26,-0.4 0.242,-0.381C0.223,-0.361 0.214,-0.334 0.214,-0.3L0.214,-0.216C0.214,-0.182 0.223,-0.155 0.242,-0.136C0.26,-0.116 0.287,-0.106 0.322,-0.106C0.351,-0.106 0.373,-0.113 0.39,-0.126C0.406,-0.139 0.42,-0.157 0.431,-0.178L0.543,-0.114C0.524,-0.076 0.497,-0.046 0.462,-0.023C0.426,0.001 0.379,0.012 0.321,0.012Z" style="fill:#c33;fill-rule:nonzero;"/>
                </g>
                <g transform="matrix(10,0,0,10,708.206,111.178)">
                    <path d="M0.174,-0.311C0.174,-0.36 0.18,-0.407 0.191,-0.452C0.202,-0.497 0.217,-0.538 0.236,-0.577C0.255,-0.616 0.277,-0.651 0.302,-0.682C0.327,-0.713 0.354,-0.739 0.382,-0.76L0.53,-0.76C0.499,-0.739 0.469,-0.714 0.441,-0.686C0.413,-0.657 0.389,-0.626 0.368,-0.592C0.347,-0.558 0.33,-0.522 0.317,-0.483C0.304,-0.444 0.298,-0.404 0.298,-0.362L0.298,-0.26C0.298,-0.218 0.304,-0.178 0.317,-0.139C0.33,-0.1 0.347,-0.064 0.368,-0.03C0.389,0.004 0.413,0.035 0.441,0.064C0.469,0.092 0.499,0.117 0.53,0.138L0.382,0.138C0.354,0.117 0.327,0.091 0.302,0.06C0.277,0.029 0.255,-0.006 0.236,-0.045C0.217,-0.084 0.202,-0.126 0.191,-0.171C0.18,-0.216 0.174,-0.262 0.174,-0.311Z" style="fill:#c33;fill-rule:nonzero;"/>
                </g>
                <g transform="matrix(10,0,0,10,714.206,111.178)">
                    <path d="M0.077,-0.698L0.322,-0.698C0.391,-0.698 0.443,-0.681 0.48,-0.648C0.516,-0.615 0.534,-0.569 0.534,-0.512C0.534,-0.472 0.524,-0.44 0.505,-0.417C0.485,-0.393 0.457,-0.376 0.42,-0.365L0.42,-0.359C0.463,-0.348 0.497,-0.33 0.521,-0.303C0.544,-0.276 0.556,-0.239 0.556,-0.192C0.556,-0.133 0.538,-0.087 0.501,-0.052C0.464,-0.017 0.412,-0 0.345,-0L0.077,-0L0.077,-0.698ZM0.299,-0.105C0.335,-0.105 0.361,-0.111 0.378,-0.123C0.395,-0.135 0.403,-0.157 0.403,-0.189L0.403,-0.218C0.403,-0.25 0.395,-0.272 0.378,-0.284C0.361,-0.296 0.335,-0.302 0.299,-0.302L0.223,-0.302L0.223,-0.105L0.299,-0.105ZM0.28,-0.402C0.315,-0.402 0.341,-0.408 0.357,-0.42C0.373,-0.431 0.381,-0.452 0.381,-0.483L0.381,-0.513C0.381,-0.544 0.373,-0.565 0.357,-0.576C0.341,-0.587 0.315,-0.593 0.28,-0.593L0.223,-0.593L0.223,-0.402L0.28,-0.402Z" style="fill:#c33;fill-rule:nonzero;"/>
                </g>
                <g transform="matrix(5.83,0,0,5.83,720.206,114.508)">
                    <path d="M0.08,-0L0.08,-0.698L0.543,-0.698L0.543,-0.575L0.23,-0.575L0.23,-0.415L0.51,-0.415L0.51,-0.292L0.23,-0.292L0.23,-0L0.08,-0Z" style="fill:#c33;fill-rule:nonzero;"/>
                </g>
                <g transform="matrix(5.83,0,0,5.83,723.704,114.508)">
                    <path d="M0.236,-0.062L0.236,-0.246L0.062,-0.246L0.062,-0.364L0.236,-0.364L0.236,-0.548L0.364,-0.548L0.364,-0.364L0.538,-0.364L0.538,-0.246L0.364,-0.246L0.364,-0.062L0.236,-0.062Z" style="fill:#c33;fill-rule:nonzero;"/>
                </g>
                <g transform="matrix(5.83,0,0,5.83,727.202,114.508)">
                    <path d="M0.34,-0C0.287,-0 0.247,-0.014 0.221,-0.042C0.195,-0.07 0.182,-0.106 0.182,-0.149L0.182,-0.401L0.042,-0.401L0.042,-0.516L0.133,-0.516C0.155,-0.516 0.171,-0.52 0.18,-0.529C0.189,-0.538 0.194,-0.554 0.194,-0.577L0.194,-0.698L0.33,-0.698L0.33,-0.516L0.531,-0.516L0.531,-0.401L0.33,-0.401L0.33,-0.115L0.531,-0.115L0.531,-0L0.34,-0Z" style="fill:#c33;fill-rule:nonzero;"/>
                </g>
                <g transform="matrix(5.83,0,0,5.83,730.7,114.508)">
                    <path d="M0.236,-0.062L0.236,-0.246L0.062,-0.246L0.062,-0.364L0.236,-0.364L0.236,-0.548L0.364,-0.548L0.364,-0.364L0.538,-0.364L0.538,-0.246L0.364,-0.246L0.364,-0.062L0.236,-0.062Z" style="fill:#c33;fill-rule:nonzero;"/>
                </g>
                <g transform="matrix(5.83,0,0,5.83,734.198,114.508)">
                    <path d="M0.094,-0L0.094,-0.121L0.282,-0.121L0.282,-0.589L0.273,-0.589L0.131,-0.403L0.035,-0.478L0.202,-0.698L0.432,-0.698L0.432,-0.121L0.58,-0.121L0.58,-0L0.094,-0Z" style="fill:#c33;fill-rule:nonzero;"/>
                </g>
                <g transform="matrix(10,0,0,10,737.696,111.178)">
                    <path d="M0.426,-0.311C0.426,-0.262 0.421,-0.216 0.41,-0.171C0.399,-0.126 0.384,-0.084 0.365,-0.045C0.345,-0.006 0.323,0.029 0.298,0.06C0.273,0.091 0.246,0.117 0.218,0.138L0.07,0.138C0.101,0.117 0.13,0.092 0.159,0.064C0.187,0.035 0.212,0.004 0.233,-0.03C0.254,-0.064 0.27,-0.1 0.283,-0.139C0.296,-0.178 0.302,-0.218 0.302,-0.26L0.302,-0.362C0.302,-0.404 0.296,-0.444 0.283,-0.483C0.27,-0.522 0.254,-0.558 0.233,-0.592C0.212,-0.626 0.187,-0.657 0.159,-0.686C0.13,-0.714 0.101,-0.739 0.07,-0.76L0.218,-0.76C0.246,-0.739 0.273,-0.713 0.298,-0.682C0.323,-0.651 0.345,-0.616 0.365,-0.577C0.384,-0.538 0.399,-0.497 0.41,-0.452C0.421,-0.407 0.426,-0.36 0.426,-0.311Z" style="fill:#c33;fill-rule:nonzero;"/>
                </g>
            </g>
        </g>
        <g id="proc1" serif:id="proc">
            <path d="M526.667,120.181L523.062,121.765L521.478,118.159" style="fill:none;stroke:#c33;stroke-width:1.88px;"/>
            <path d="M511.857,20.5C526.743,-2.151 567.893,6.268 523.062,121.765" style="fill:none;stroke:#c33;stroke-width:1.88px;stroke-linejoin:round;stroke-miterlimit:1.5;stroke-dasharray:1.88,1.88;"/>
            <g transform="matrix(1.25,0,0,1.25,-370.872,1.75)">
                <g transform="matrix(10,0,0,10,684.206,111.178)">
                    <path d="M0.059,-0.516L0.207,-0.516L0.207,-0.422L0.214,-0.422C0.227,-0.453 0.245,-0.478 0.269,-0.498C0.293,-0.518 0.326,-0.528 0.367,-0.528C0.396,-0.528 0.422,-0.523 0.446,-0.512C0.469,-0.501 0.49,-0.485 0.507,-0.463C0.524,-0.441 0.537,-0.413 0.547,-0.379C0.556,-0.345 0.561,-0.305 0.561,-0.258C0.561,-0.211 0.556,-0.171 0.547,-0.137C0.537,-0.103 0.524,-0.075 0.507,-0.053C0.49,-0.031 0.469,-0.015 0.446,-0.004C0.422,0.007 0.396,0.012 0.367,0.012C0.326,0.012 0.293,0.002 0.269,-0.018C0.245,-0.037 0.227,-0.063 0.214,-0.094L0.207,-0.094L0.207,0.2L0.059,0.2L0.059,-0.516ZM0.303,-0.103C0.336,-0.103 0.362,-0.113 0.38,-0.134C0.398,-0.154 0.407,-0.182 0.407,-0.218L0.407,-0.298C0.407,-0.334 0.398,-0.362 0.38,-0.383C0.362,-0.403 0.336,-0.413 0.303,-0.413C0.277,-0.413 0.255,-0.407 0.236,-0.394C0.217,-0.381 0.207,-0.361 0.207,-0.334L0.207,-0.182C0.207,-0.155 0.217,-0.135 0.236,-0.122C0.255,-0.109 0.277,-0.103 0.303,-0.103Z" style="fill:#c33;fill-rule:nonzero;"/>
                </g>
                <g transform="matrix(10,0,0,10,690.206,111.178)">
                    <path d="M0.074,-0.115L0.193,-0.115L0.193,-0.401L0.074,-0.401L0.074,-0.516L0.341,-0.516L0.341,-0.37L0.348,-0.37C0.353,-0.389 0.359,-0.407 0.368,-0.425C0.376,-0.442 0.387,-0.458 0.4,-0.472C0.413,-0.485 0.428,-0.496 0.447,-0.504C0.466,-0.512 0.488,-0.516 0.513,-0.516L0.562,-0.516L0.562,-0.38L0.452,-0.38C0.415,-0.38 0.388,-0.369 0.369,-0.348C0.35,-0.326 0.341,-0.299 0.341,-0.268L0.341,-0.115L0.511,-0.115L0.511,-0L0.074,-0L0.074,-0.115Z" style="fill:#c33;fill-rule:nonzero;"/>
                </g>
                <g transform="matrix(10,0,0,10,696.206,111.178)">
                    <path d="M0.3,0.012C0.26,0.012 0.224,0.006 0.192,-0.007C0.16,-0.019 0.133,-0.037 0.111,-0.06C0.088,-0.083 0.071,-0.112 0.059,-0.145C0.047,-0.178 0.041,-0.216 0.041,-0.258C0.041,-0.3 0.047,-0.338 0.059,-0.371C0.071,-0.404 0.088,-0.433 0.111,-0.456C0.133,-0.479 0.16,-0.497 0.192,-0.51C0.224,-0.522 0.26,-0.528 0.3,-0.528C0.34,-0.528 0.376,-0.522 0.408,-0.51C0.44,-0.497 0.467,-0.479 0.49,-0.456C0.512,-0.433 0.529,-0.404 0.541,-0.371C0.553,-0.338 0.559,-0.3 0.559,-0.258C0.559,-0.216 0.553,-0.178 0.541,-0.145C0.529,-0.112 0.512,-0.083 0.49,-0.06C0.467,-0.037 0.44,-0.019 0.408,-0.007C0.376,0.006 0.34,0.012 0.3,0.012ZM0.3,-0.098C0.333,-0.098 0.359,-0.108 0.378,-0.129C0.397,-0.15 0.406,-0.179 0.406,-0.217L0.406,-0.299C0.406,-0.337 0.397,-0.366 0.378,-0.387C0.359,-0.408 0.333,-0.418 0.3,-0.418C0.267,-0.418 0.241,-0.408 0.222,-0.387C0.203,-0.366 0.194,-0.337 0.194,-0.299L0.194,-0.217C0.194,-0.179 0.203,-0.15 0.222,-0.129C0.241,-0.108 0.267,-0.098 0.3,-0.098Z" style="fill:#c33;fill-rule:nonzero;"/>
                </g>
                <g transform="matrix(10,0,0,10,702.206,111.178)">
                    <path d="M0.321,0.012C0.28,0.012 0.244,0.006 0.212,-0.007C0.179,-0.019 0.152,-0.037 0.13,-0.06C0.107,-0.083 0.09,-0.112 0.078,-0.145C0.066,-0.178 0.06,-0.216 0.06,-0.258C0.06,-0.3 0.066,-0.338 0.078,-0.371C0.09,-0.404 0.107,-0.433 0.13,-0.456C0.152,-0.479 0.179,-0.497 0.212,-0.51C0.244,-0.522 0.28,-0.528 0.32,-0.528C0.377,-0.528 0.422,-0.517 0.457,-0.494C0.491,-0.47 0.517,-0.44 0.535,-0.402L0.421,-0.34C0.412,-0.36 0.4,-0.377 0.385,-0.39C0.37,-0.403 0.348,-0.41 0.32,-0.41C0.286,-0.41 0.26,-0.4 0.242,-0.381C0.223,-0.361 0.214,-0.334 0.214,-0.3L0.214,-0.216C0.214,-0.182 0.223,-0.155 0.242,-0.136C0.26,-0.116 0.287,-0.106 0.322,-0.106C0.351,-0.106 0.373,-0.113 0.39,-0.126C0.406,-0.139 0.42,-0.157 0.431,-0.178L0.543,-0.114C0.524,-0.076 0.497,-0.046 0.462,-0.023C0.426,0.001 0.379,0.012 0.321,0.012Z" style="fill:#c33;fill-rule:nonzero;"/>
                </g>
                <g transform="matrix(10,0,0,10,708.206,111.178)">
                    <path d="M0.174,-0.311C0.174,-0.36 0.18,-0.407 0.191,-0.452C0.202,-0.497 0.217,-0.538 0.236,-0.577C0.255,-0.616 0.277,-0.651 0.302,-0.682C0.327,-0.713 0.354,-0.739 0.382,-0.76L0.53,-0.76C0.499,-0.739 0.469,-0.714 0.441,-0.686C0.413,-0.657 0.389,-0.626 0.368,-0.592C0.347,-0.558 0.33,-0.522 0.317,-0.483C0.304,-0.444 0.298,-0.404 0.298,-0.362L0.298,-0.26C0.298,-0.218 0.304,-0.178 0.317,-0.139C0.33,-0.1 0.347,-0.064 0.368,-0.03C0.389,0.004 0.413,0.035 0.441,0.064C0.469,0.092 0.499,0.117 0.53,0.138L0.382,0.138C0.354,0.117 0.327,0.091 0.302,0.06C0.277,0.029 0.255,-0.006 0.236,-0.045C0.217,-0.084 0.202,-0.126 0.191,-0.171C0.18,-0.216 0.174,-0.262 0.174,-0.311Z" style="fill:#c33;fill-rule:nonzero;"/>
                </g>
                <g transform="matrix(10,0,0,10,714.206,111.178)">
                    <path d="M0.077,-0.698L0.322,-0.698C0.391,-0.698 0.443,-0.681 0.48,-0.648C0.516,-0.615 0.534,-0.569 0.534,-0.512C0.534,-0.472 0.524,-0.44 0.505,-0.417C0.485,-0.393 0.457,-0.376 0.42,-0.365L0.42,-0.359C0.463,-0.348 0.497,-0.33 0.521,-0.303C0.544,-0.276 0.556,-0.239 0.556,-0.192C0.556,-0.133 0.538,-0.087 0.501,-0.052C0.464,-0.017 0.412,-0 0.345,-0L0.077,-0L0.077,-0.698ZM0.299,-0.105C0.335,-0.105 0.361,-0.111 0.378,-0.123C0.395,-0.135 0.403,-0.157 0.403,-0.189L0.403,-0.218C0.403,-0.25 0.395,-0.272 0.378,-0.284C0.361,-0.296 0.335,-0.302 0.299,-0.302L0.223,-0.302L0.223,-0.105L0.299,-0.105ZM0.28,-0.402C0.315,-0.402 0.341,-0.408 0.357,-0.42C0.373,-0.431 0.381,-0.452 0.381,-0.483L0.381,-0.513C0.381,-0.544 0.373,-0.565 0.357,-0.576C0.341,-0.587 0.315,-0.593 0.28,-0.593L0.223,-0.593L0.223,-0.402L0.28,-0.402Z" style="fill:#c33;fill-rule:nonzero;"/>
                </g>
                <g transform="matrix(5.83,0,0,5.83,720.206,114.508)">
                    <path d="M0.08,-0L0.08,-0.698L0.543,-0.698L0.543,-0.575L0.23,-0.575L0.23,-0.415L0.51,-0.415L0.51,-0.292L0.23,-0.292L0.23,-0L0.08,-0Z" style="fill:#c33;fill-rule:nonzero;"/>
                </g>
                <g transform="matrix(5.83,0,0,5.83,723.704,114.508)">
                    <path d="M0.236,-0.062L0.236,-0.246L0.062,-0.246L0.062,-0.364L0.236,-0.364L0.236,-0.548L0.364,-0.548L0.364,-0.364L0.538,-0.364L0.538,-0.246L0.364,-0.246L0.364,-0.062L0.236,-0.062Z" style="fill:#c33;fill-rule:nonzero;"/>
                </g>
                <g transform="matrix(5.83,0,0,5.83,727.202,114.508)">
                    <path d="M0.34,-0C0.287,-0 0.247,-0.014 0.221,-0.042C0.195,-0.07 0.182,-0.106 0.182,-0.149L0.182,-0.401L0.042,-0.401L0.042,-0.516L0.133,-0.516C0.155,-0.516 0.171,-0.52 0.18,-0.529C0.189,-0.538 0.194,-0.554 0.194,-0.577L0.194,-0.698L0.33,-0.698L0.33,-0.516L0.531,-0.516L0.531,-0.401L0.33,-0.401L0.33,-0.115L0.531,-0.115L0.531,-0L0.34,-0Z" style="fill:#c33;fill-rule:nonzero;"/>
                </g>
                <g transform="matrix(5.83,0,0,5.83,730.7,114.508)">
                    <path d="M0.236,-0.062L0.236,-0.246L0.062,-0.246L0.062,-0.364L0.236,-0.364L0.236,-0.548L0.364,-0.548L0.364,-0.364L0.538,-0.364L0.538,-0.246L0.364,-0.246L0.364,-0.062L0.236,-0.062Z" style="fill:#c33;fill-rule:nonzero;"/>
                </g>
                <g transform="matrix(5.83,0,0,5.83,734.198,114.508)">
                    <path d="M0.555,-0L0.053,-0L0.053,-0.137L0.273,-0.32C0.311,-0.353 0.338,-0.381 0.355,-0.405C0.372,-0.429 0.38,-0.454 0.38,-0.481L0.38,-0.491C0.38,-0.52 0.371,-0.543 0.354,-0.558C0.337,-0.572 0.313,-0.58 0.284,-0.58C0.251,-0.58 0.225,-0.57 0.207,-0.551C0.189,-0.532 0.176,-0.509 0.169,-0.482L0.038,-0.532C0.046,-0.556 0.057,-0.579 0.071,-0.601C0.085,-0.622 0.103,-0.641 0.125,-0.657C0.146,-0.673 0.171,-0.686 0.2,-0.696C0.229,-0.705 0.262,-0.71 0.299,-0.71C0.337,-0.71 0.371,-0.705 0.401,-0.694C0.431,-0.683 0.456,-0.669 0.477,-0.65C0.498,-0.631 0.513,-0.609 0.524,-0.584C0.535,-0.558 0.54,-0.53 0.54,-0.5C0.54,-0.471 0.535,-0.444 0.526,-0.42C0.516,-0.395 0.503,-0.372 0.486,-0.351C0.468,-0.33 0.448,-0.309 0.426,-0.289C0.403,-0.269 0.378,-0.249 0.352,-0.229L0.219,-0.126L0.555,-0.126L0.555,-0Z" style="fill:#c33;fill-rule:nonzero;"/>
                </g>
                <g transform="matrix(10,0,0,10,737.696,111.178)">
                    <path d="M0.426,-0.311C0.426,-0.262 0.421,-0.216 0.41,-0.171C0.399,-0.126 0.384,-0.084 0.365,-0.045C0.345,-0.006 0.323,0.029 0.298,0.06C0.273,0.091 0.246,0.117 0.218,0.138L0.07,0.138C0.101,0.117 0.13,0.092 0.159,0.064C0.187,0.035 0.212,0.004 0.233,-0.03C0.254,-0.064 0.27,-0.1 0.283,-0.139C0.296,-0.178 0.302,-0.218 0.302,-0.26L0.302,-0.362C0.302,-0.404 0.296,-0.444 0.283,-0.483C0.27,-0.522 0.254,-0.558 0.233,-0.592C0.212,-0.626 0.187,-0.657 0.159,-0.686C0.13,-0.714 0.101,-0.739 0.07,-0.76L0.218,-0.76C0.246,-0.739 0.273,-0.713 0.298,-0.682C0.323,-0.651 0.345,-0.616 0.365,-0.577C0.384,-0.538 0.399,-0.497 0.41,-0.452C0.421,-0.407 0.426,-0.36 0.426,-0.311Z" style="fill:#c33;fill-rule:nonzero;"/>
                </g>
            </g>
        </g>
        <g id="proc2" serif:id="proc">
            <path d="M602.817,120.181L599.212,121.765L597.628,118.159" style="fill:none;stroke:#c33;stroke-width:1.88px;"/>
            <path d="M588.007,20.5C602.892,-2.151 644.042,6.268 599.212,121.765" style="fill:none;stroke:#c33;stroke-width:1.88px;stroke-linejoin:round;stroke-miterlimit:1.5;stroke-dasharray:1.88,1.88;"/>
            <g transform="matrix(1.25,0,0,1.25,-284.246,1.75)">
                <g transform="matrix(10,0,0,10,684.206,111.178)">
                    <path d="M0.059,-0.516L0.207,-0.516L0.207,-0.422L0.214,-0.422C0.227,-0.453 0.245,-0.478 0.269,-0.498C0.293,-0.518 0.326,-0.528 0.367,-0.528C0.396,-0.528 0.422,-0.523 0.446,-0.512C0.469,-0.501 0.49,-0.485 0.507,-0.463C0.524,-0.441 0.537,-0.413 0.547,-0.379C0.556,-0.345 0.561,-0.305 0.561,-0.258C0.561,-0.211 0.556,-0.171 0.547,-0.137C0.537,-0.103 0.524,-0.075 0.507,-0.053C0.49,-0.031 0.469,-0.015 0.446,-0.004C0.422,0.007 0.396,0.012 0.367,0.012C0.326,0.012 0.293,0.002 0.269,-0.018C0.245,-0.037 0.227,-0.063 0.214,-0.094L0.207,-0.094L0.207,0.2L0.059,0.2L0.059,-0.516ZM0.303,-0.103C0.336,-0.103 0.362,-0.113 0.38,-0.134C0.398,-0.154 0.407,-0.182 0.407,-0.218L0.407,-0.298C0.407,-0.334 0.398,-0.362 0.38,-0.383C0.362,-0.403 0.336,-0.413 0.303,-0.413C0.277,-0.413 0.255,-0.407 0.236,-0.394C0.217,-0.381 0.207,-0.361 0.207,-0.334L0.207,-0.182C0.207,-0.155 0.217,-0.135 0.236,-0.122C0.255,-0.109 0.277,-0.103 0.303,-0.103Z" style="fill:#c33;fill-rule:nonzero;"/>
                </g>
                <g transform="matrix(10,0,0,10,690.206,111.178)">
                    <path d="M0.074,-0.115L0.193,-0.115L0.193,-0.401L0.074,-0.401L0.074,-0.516L0.341,-0.516L0.341,-0.37L0.348,-0.37C0.353,-0.389 0.359,-0.407 0.368,-0.425C0.376,-0.442 0.387,-0.458 0.4,-0.472C0.413,-0.485 0.428,-0.496 0.447,-0.504C0.466,-0.512 0.488,-0.516 0.513,-0.516L0.562,-0.516L0.562,-0.38L0.452,-0.38C0.415,-0.38 0.388,-0.369 0.369,-0.348C0.35,-0.326 0.341,-0.299 0.341,-0.268L0.341,-0.115L0.511,-0.115L0.511,-0L0.074,-0L0.074,-0.115Z" style="fill:#c33;fill-rule:nonzero;"/>
                </g>
                <g transform="matrix(10,0,0,10,696.206,111.178)">
                    <path d="M0.3,0.012C0.26,0.012 0.224,0.006 0.192,-0.007C0.16,-0.019 0.133,-0.037 0.111,-0.06C0.088,-0.083 0.071,-0.112 0.059,-0.145C0.047,-0.178 0.041,-0.216 0.041,-0.258C0.041,-0.3 0.047,-0.338 0.059,-0.371C0.071,-0.404 0.088,-0.433 0.111,-0.456C0.133,-0.479 0.16,-0.497 0.192,-0.51C0.224,-0.522 0.26,-0.528 0.3,-0.528C0.34,-0.528 0.376,-0.522 0.408,-0.51C0.44,-0.497 0.467,-0.479 0.49,-0.456C0.512,-0.433 0.529,-0.404 0.541,-0.371C0.553,-0.338 0.559,-0.3 0.559,-0.258C0.559,-0.216 0.553,-0.178 0.541,-0.145C0.529,-0.112 0.512,-0.083 0.49,-0.06C0.467,-0.037 0.44,-0.019 0.408,-0.007C0.376,0.006 0.34,0.012 0.3,0.012ZM0.3,-0.098C0.333,-0.098 0.359,-0.108 0.378,-0.129C0.397,-0.15 0.406,-0.179 0.406,-0.217L0.406,-0.299C0.406,-0.337 0.397,-0.366 0.378,-0.387C0.359,-0.408 0.333,-0.418 0.3,-0.418C0.267,-0.418 0.241,-0.408 0.222,-0.387C0.203,-0.366 0.194,-0.337 0.194,-0.299L0.194,-0.217C0.194,-0.179 0.203,-0.15 0.222,-0.129C0.241,-0.108 0.267,-0.098 0.3,-0.098Z" style="fill:#c33;fill-rule:nonzero;"/>
                </g>
                <g transform="matrix(10,0,0,10,702.206,111.178)">
                    <path d="M0.321,0.012C0.28,0.012 0.244,0.006 0.212,-0.007C0.179,-0.019 0.152,-0.037 0.13,-0.06C0.107,-0.083 0.09,-0.112 0.078,-0.145C0.066,-0.178 0.06,-0.216 0.06,-0.258C0.06,-0.3 0.066,-0.338 0.078,-0.371C0.09,-0.404 0.107,-0.433 0.13,-0.456C0.152,-0.479 0.179,-0.497 0.212,-0.51C0.244,-0.522 0.28,-0.528 0.32,-0.528C0.377,-0.528 0.422,-0.517 0.457,-0.494C0.491,-0.47 0.517,-0.44 0.535,-0.402L0.421,-0.34C0.412,-0.36 0.4,-0.377 0.385,-0.39C0.37,-0.403 0.348,-0.41 0.32,-0.41C0.286,-0.41 0.26,-0.4 0.242,-0.381C0.223,-0.361 0.214,-0.334 0.214,-0.3L0.214,-0.216C0.214,-0.182 0.223,-0.155 0.242,-0.136C0.26,-0.116 0.287,-0.106 0.322,-0.106C0.351,-0.106 0.373,-0.113 0.39,-0.126C0.406,-0.139 0.42,-0.157 0.431,-0.178L0.543,-0.114C0.524,-0.076 0.497,-0.046 0.462,-0.023C0.426,0.001 0.379,0.012 0.321,0.012Z" style="fill:#c33;fill-rule:nonzero;"/>
                </g>
                <g transform="matrix(10,0,0,10,708.206,111.178)">
                    <path d="M0.174,-0.311C0.174,-0.36 0.18,-0.407 0.191,-0.452C0.202,-0.497 0.217,-0.538 0.236,-0.577C0.255,-0.616 0.277,-0.651 0.302,-0.682C0.327,-0.713 0.354,-0.739 0.382,-0.76L0.53,-0.76C0.499,-0.739 0.469,-0.714 0.441,-0.686C0.413,-0.657 0.389,-0.626 0.368,-0.592C0.347,-0.558 0.33,-0.522 0.317,-0.483C0.304,-0.444 0.298,-0.404 0.298,-0.362L0.298,-0.26C0.298,-0.218 0.304,-0.178 0.317,-0.139C0.33,-0.1 0.347,-0.064 0.368,-0.03C0.389,0.004 0.413,0.035 0.441,0.064C0.469,0.092 0.499,0.117 0.53,0.138L0.382,0.138C0.354,0.117 0.327,0.091 0.302,0.06C0.277,0.029 0.255,-0.006 0.236,-0.045C0.217,-0.084 0.202,-0.126 0.191,-0.171C0.18,-0.216 0.174,-0.262 0.174,-0.311Z" style="fill:#c33;fill-rule:nonzero;"/>
                </g>
                <g transform="matrix(10,0,0,10,714.206,111.178)">
                    <path d="M0.077,-0.698L0.322,-0.698C0.391,-0.698 0.443,-0.681 0.48,-0.648C0.516,-0.615 0.534,-0.569 0.534,-0.512C0.534,-0.472 0.524,-0.44 0.505,-0.417C0.485,-0.393 0.457,-0.376 0.42,-0.365L0.42,-0.359C0.463,-0.348 0.497,-0.33 0.521,-0.303C0.544,-0.276 0.556,-0.239 0.556,-0.192C0.556,-0.133 0.538,-0.087 0.501,-0.052C0.464,-0.017 0.412,-0 0.345,-0L0.077,-0L0.077,-0.698ZM0.299,-0.105C0.335,-0.105 0.361,-0.111 0.378,-0.123C0.395,-0.135 0.403,-0.157 0.403,-0.189L0.403,-0.218C0.403,-0.25 0.395,-0.272 0.378,-0.284C0.361,-0.296 0.335,-0.302 0.299,-0.302L0.223,-0.302L0.223,-0.105L0.299,-0.105ZM0.28,-0.402C0.315,-0.402 0.341,-0.408 0.357,-0.42C0.373,-0.431 0.381,-0.452 0.381,-0.483L0.381,-0.513C0.381,-0.544 0.373,-0.565 0.357,-0.576C0.341,-0.587 0.315,-0.593 0.28,-0.593L0.223,-0.593L0.223,-0.402L0.28,-0.402Z" style="fill:#c33;fill-rule:nonzero;"/>
                </g>
                <g transform="matrix(5.83,0,0,5.83,720.206,114.508)">
                    <path d="M0.065,-0.74L0.213,-0.74L0.213,-0.422L0.219,-0.422C0.225,-0.437 0.232,-0.45 0.241,-0.463C0.25,-0.476 0.26,-0.487 0.273,-0.497C0.285,-0.506 0.299,-0.514 0.316,-0.52C0.332,-0.525 0.35,-0.528 0.371,-0.528C0.396,-0.528 0.418,-0.524 0.439,-0.516C0.46,-0.507 0.477,-0.495 0.492,-0.478C0.507,-0.461 0.518,-0.441 0.527,-0.417C0.535,-0.393 0.539,-0.365 0.539,-0.334L0.539,-0L0.391,-0L0.391,-0.314C0.391,-0.381 0.362,-0.414 0.304,-0.414C0.293,-0.414 0.282,-0.413 0.271,-0.41C0.26,-0.407 0.25,-0.402 0.241,-0.396C0.232,-0.389 0.226,-0.381 0.221,-0.372C0.216,-0.363 0.213,-0.352 0.213,-0.339L0.213,-0L0.065,-0L0.065,-0.74Z" style="fill:#c33;fill-rule:nonzero;"/>
                </g>
                <g transform="matrix(10,0,0,10,723.704,111.178)">
                    <path d="M0.426,-0.311C0.426,-0.262 0.421,-0.216 0.41,-0.171C0.399,-0.126 0.384,-0.084 0.365,-0.045C0.345,-0.006 0.323,0.029 0.298,0.06C0.273,0.091 0.246,0.117 0.218,0.138L0.07,0.138C0.101,0.117 0.13,0.092 0.159,0.064C0.187,0.035 0.212,0.004 0.233,-0.03C0.254,-0.064 0.27,-0.1 0.283,-0.139C0.296,-0.178 0.302,-0.218 0.302,-0.26L0.302,-0.362C0.302,-0.404 0.296,-0.444 0.283,-0.483C0.27,-0.522 0.254,-0.558 0.233,-0.592C0.212,-0.626 0.187,-0.657 0.159,-0.686C0.13,-0.714 0.101,-0.739 0.07,-0.76L0.218,-0.76C0.246,-0.739 0.273,-0.713 0.298,-0.682C0.323,-0.651 0.345,-0.616 0.365,-0.577C0.384,-0.538 0.399,-0.497 0.41,-0.452C0.421,-0.407 0.426,-0.36 0.426,-0.311Z" style="fill:#c33;fill-rule:nonzero;"/>
                </g>
            </g>
        </g>
        <g>
            <g id="synced">
                <path d="M319.859,122.134L321.611,118.608L325.137,120.361" style="fill:none;stroke:#c33;stroke-width:1.87px;"/>
                <path d="M266.596,153.914C258.49,116.778 339.587,173.512 321.611,118.608" style="fill:none;stroke:#c33;stroke-width:1.87px;stroke-linejoin:round;stroke-miterlimit:1.5;stroke-dasharray:1.87,1.87;"/>
                <g transform="matrix(1.24995,0.0107986,-0.0107986,1.24995,-564.163,-34.2696)">
                    <g transform="matrix(10,0,0,10,684.206,111.178)">
                        <path d="M0.294,0.012C0.237,0.012 0.187,0.003 0.145,-0.014C0.102,-0.031 0.07,-0.055 0.049,-0.085L0.132,-0.162C0.152,-0.14 0.175,-0.123 0.203,-0.111C0.23,-0.098 0.26,-0.092 0.295,-0.092C0.324,-0.092 0.347,-0.096 0.364,-0.106C0.381,-0.115 0.389,-0.128 0.389,-0.147C0.389,-0.162 0.383,-0.172 0.372,-0.178C0.361,-0.183 0.345,-0.188 0.325,-0.191L0.242,-0.204C0.219,-0.207 0.197,-0.213 0.177,-0.22C0.157,-0.227 0.14,-0.236 0.125,-0.248C0.11,-0.26 0.099,-0.275 0.09,-0.292C0.081,-0.309 0.077,-0.33 0.077,-0.355C0.077,-0.409 0.098,-0.451 0.139,-0.482C0.18,-0.513 0.238,-0.528 0.313,-0.528C0.364,-0.528 0.407,-0.521 0.443,-0.508C0.478,-0.494 0.507,-0.474 0.528,-0.449L0.454,-0.365C0.439,-0.382 0.419,-0.396 0.395,-0.407C0.371,-0.418 0.342,-0.424 0.308,-0.424C0.251,-0.424 0.222,-0.407 0.222,-0.372C0.222,-0.357 0.228,-0.346 0.239,-0.341C0.25,-0.335 0.266,-0.33 0.286,-0.327L0.368,-0.314C0.391,-0.311 0.413,-0.306 0.433,-0.299C0.453,-0.292 0.47,-0.282 0.486,-0.27C0.501,-0.258 0.512,-0.243 0.521,-0.226C0.53,-0.209 0.534,-0.188 0.534,-0.163C0.534,-0.109 0.513,-0.066 0.472,-0.035C0.43,-0.004 0.371,0.012 0.294,0.012Z" style="fill:#c33;fill-rule:nonzero;"/>
                    </g>
                    <g transform="matrix(10,0,0,10,690.206,111.178)">
                        <path d="M0.43,-0.516L0.581,-0.516L0.338,0.083C0.323,0.121 0.302,0.15 0.277,0.17C0.252,0.19 0.217,0.2 0.173,0.2L0.071,0.2L0.071,0.085L0.195,0.085L0.227,-0.003L0.019,-0.516L0.178,-0.516L0.253,-0.299L0.3,-0.149L0.308,-0.149L0.353,-0.299L0.43,-0.516Z" style="fill:#c33;fill-rule:nonzero;"/>
                    </g>
                    <g transform="matrix(10,0,0,10,696.206,111.178)">
                        <path d="M0.065,-0L0.065,-0.516L0.213,-0.516L0.213,-0.422L0.219,-0.422C0.225,-0.437 0.232,-0.45 0.241,-0.463C0.25,-0.476 0.26,-0.487 0.273,-0.497C0.285,-0.506 0.299,-0.514 0.316,-0.52C0.332,-0.525 0.35,-0.528 0.371,-0.528C0.396,-0.528 0.418,-0.524 0.439,-0.516C0.46,-0.507 0.477,-0.495 0.492,-0.478C0.507,-0.461 0.518,-0.441 0.527,-0.417C0.535,-0.393 0.539,-0.365 0.539,-0.334L0.539,-0L0.391,-0L0.391,-0.314C0.391,-0.381 0.362,-0.414 0.304,-0.414C0.293,-0.414 0.282,-0.413 0.271,-0.41C0.26,-0.407 0.25,-0.402 0.241,-0.396C0.232,-0.389 0.226,-0.381 0.221,-0.372C0.216,-0.363 0.213,-0.352 0.213,-0.339L0.213,-0L0.065,-0Z" style="fill:#c33;fill-rule:nonzero;"/>
                    </g>
                    <g transform="matrix(10,0,0,10,702.206,111.178)">
                        <path d="M0.321,0.012C0.28,0.012 0.244,0.006 0.212,-0.007C0.179,-0.019 0.152,-0.037 0.13,-0.06C0.107,-0.083 0.09,-0.112 0.078,-0.145C0.066,-0.178 0.06,-0.216 0.06,-0.258C0.06,-0.3 0.066,-0.338 0.078,-0.371C0.09,-0.404 0.107,-0.433 0.13,-0.456C0.152,-0.479 0.179,-0.497 0.212,-0.51C0.244,-0.522 0.28,-0.528 0.32,-0.528C0.377,-0.528 0.422,-0.517 0.457,-0.494C0.491,-0.47 0.517,-0.44 0.535,-0.402L0.421,-0.34C0.412,-0.36 0.4,-0.377 0.385,-0.39C0.37,-0.403 0.348,-0.41 0.32,-0.41C0.286,-0.41 0.26,-0.4 0.242,-0.381C0.223,-0.361 0.214,-0.334 0.214,-0.3L0.214,-0.216C0.214,-0.182 0.223,-0.155 0.242,-0.136C0.26,-0.116 0.287,-0.106 0.322,-0.106C0.351,-0.106 0.373,-0.113 0.39,-0.126C0.406,-0.139 0.42,-0.157 0.431,-0.178L0.543,-0.114C0.524,-0.076 0.497,-0.046 0.462,-0.023C0.426,0.001 0.379,0.012 0.321,0.012Z" style="fill:#c33;fill-rule:nonzero;"/>
                    </g>
                    <g transform="matrix(10,0,0,10,708.206,111.178)">
                        <path d="M0.314,0.012C0.227,0.012 0.162,-0.012 0.117,-0.06C0.072,-0.108 0.05,-0.173 0.05,-0.256C0.05,-0.298 0.056,-0.336 0.068,-0.37C0.079,-0.403 0.096,-0.432 0.118,-0.456C0.139,-0.479 0.166,-0.497 0.197,-0.51C0.228,-0.522 0.262,-0.528 0.301,-0.528C0.34,-0.528 0.374,-0.522 0.405,-0.51C0.436,-0.497 0.462,-0.48 0.483,-0.457C0.504,-0.434 0.521,-0.407 0.533,-0.375C0.544,-0.342 0.55,-0.306 0.55,-0.266L0.55,-0.222L0.197,-0.222L0.197,-0.213C0.197,-0.18 0.207,-0.153 0.228,-0.133C0.249,-0.112 0.279,-0.102 0.319,-0.102C0.35,-0.102 0.376,-0.108 0.398,-0.12C0.42,-0.131 0.439,-0.147 0.455,-0.166L0.535,-0.079C0.515,-0.054 0.487,-0.033 0.451,-0.015C0.415,0.003 0.369,0.012 0.314,0.012ZM0.302,-0.422C0.27,-0.422 0.245,-0.412 0.226,-0.393C0.207,-0.373 0.197,-0.346 0.197,-0.313L0.197,-0.305L0.405,-0.305L0.405,-0.313C0.405,-0.347 0.396,-0.374 0.378,-0.393C0.359,-0.412 0.334,-0.422 0.302,-0.422Z" style="fill:#c33;fill-rule:nonzero;"/>
                    </g>
                    <g transform="matrix(10,0,0,10,714.206,111.178)">
                        <path d="M0.393,-0.094L0.386,-0.094C0.373,-0.063 0.354,-0.037 0.331,-0.018C0.307,0.002 0.274,0.012 0.233,0.012C0.204,0.012 0.178,0.007 0.155,-0.004C0.131,-0.015 0.111,-0.031 0.094,-0.053C0.077,-0.075 0.063,-0.103 0.054,-0.137C0.044,-0.171 0.039,-0.211 0.039,-0.258C0.039,-0.305 0.044,-0.345 0.054,-0.379C0.063,-0.413 0.077,-0.441 0.094,-0.463C0.111,-0.485 0.131,-0.501 0.155,-0.512C0.178,-0.523 0.204,-0.528 0.233,-0.528C0.254,-0.528 0.272,-0.525 0.288,-0.52C0.304,-0.515 0.318,-0.507 0.331,-0.498C0.343,-0.489 0.354,-0.478 0.363,-0.465C0.372,-0.452 0.379,-0.437 0.386,-0.422L0.393,-0.422L0.393,-0.74L0.541,-0.74L0.541,-0L0.393,-0L0.393,-0.094ZM0.297,-0.103C0.323,-0.103 0.345,-0.109 0.365,-0.122C0.384,-0.135 0.393,-0.155 0.393,-0.182L0.393,-0.334C0.393,-0.361 0.384,-0.381 0.365,-0.394C0.345,-0.407 0.323,-0.413 0.297,-0.413C0.264,-0.413 0.238,-0.403 0.22,-0.383C0.202,-0.362 0.193,-0.334 0.193,-0.298L0.193,-0.218C0.193,-0.182 0.202,-0.154 0.22,-0.134C0.238,-0.113 0.264,-0.103 0.297,-0.103Z" style="fill:#c33;fill-rule:nonzero;"/>
                    </g>
                    <g transform="matrix(10,0,0,10,720.206,111.178)">
                        <path d="M0.174,-0.311C0.174,-0.36 0.18,-0.407 0.191,-0.452C0.202,-0.497 0.217,-0.538 0.236,-0.577C0.255,-0.616 0.277,-0.651 0.302,-0.682C0.327,-0.713 0.354,-0.739 0.382,-0.76L0.53,-0.76C0.499,-0.739 0.469,-0.714 0.441,-0.686C0.413,-0.657 0.389,-0.626 0.368,-0.592C0.347,-0.558 0.33,-0.522 0.317,-0.483C0.304,-0.444 0.298,-0.404 0.298,-0.362L0.298,-0.26C0.298,-0.218 0.304,-0.178 0.317,-0.139C0.33,-0.1 0.347,-0.064 0.368,-0.03C0.389,0.004 0.413,0.035 0.441,0.064C0.469,0.092 0.499,0.117 0.53,0.138L0.382,0.138C0.354,0.117 0.327,0.091 0.302,0.06C0.277,0.029 0.255,-0.006 0.236,-0.045C0.217,-0.084 0.202,-0.126 0.191,-0.171C0.18,-0.216 0.174,-0.262 0.174,-0.311Z" style="fill:#c33;fill-rule:nonzero;"/>
                    </g>
                    <g transform="matrix(10,0,0,10,726.206,111.178)">
                        <path d="M0.077,-0.698L0.322,-0.698C0.391,-0.698 0.443,-0.681 0.48,-0.648C0.516,-0.615 0.534,-0.569 0.534,-0.512C0.534,-0.472 0.524,-0.44 0.505,-0.417C0.485,-0.393 0.457,-0.376 0.42,-0.365L0.42,-0.359C0.463,-0.348 0.497,-0.33 0.521,-0.303C0.544,-0.276 0.556,-0.239 0.556,-0.192C0.556,-0.133 0.538,-0.087 0.501,-0.052C0.464,-0.017 0.412,-0 0.345,-0L0.077,-0L0.077,-0.698ZM0.299,-0.105C0.335,-0.105 0.361,-0.111 0.378,-0.123C0.395,-0.135 0.403,-0.157 0.403,-0.189L0.403,-0.218C0.403,-0.25 0.395,-0.272 0.378,-0.284C0.361,-0.296 0.335,-0.302 0.299,-0.302L0.223,-0.302L0.223,-0.105L0.299,-0.105ZM0.28,-0.402C0.315,-0.402 0.341,-0.408 0.357,-0.42C0.373,-0.431 0.381,-0.452 0.381,-0.483L0.381,-0.513C0.381,-0.544 0.373,-0.565 0.357,-0.576C0.341,-0.587 0.315,-0.593 0.28,-0.593L0.223,-0.593L0.223,-0.402L0.28,-0.402Z" style="fill:#c33;fill-rule:nonzero;"/>
                    </g>
                    <g transform="matrix(5.83,0,0,5.83,732.206,114.508)">
                        <path d="M0.08,-0L0.08,-0.698L0.543,-0.698L0.543,-0.575L0.23,-0.575L0.23,-0.415L0.51,-0.415L0.51,-0.292L0.23,-0.292L0.23,-0L0.08,-0Z" style="fill:#c33;fill-rule:nonzero;"/>
                    </g>
                    <g transform="matrix(5.83,0,0,5.83,735.704,114.508)">
                        <path d="M0.236,-0.062L0.236,-0.246L0.062,-0.246L0.062,-0.364L0.236,-0.364L0.236,-0.548L0.364,-0.548L0.364,-0.364L0.538,-0.364L0.538,-0.246L0.364,-0.246L0.364,-0.062L0.236,-0.062Z" style="fill:#c33;fill-rule:nonzero;"/>
                    </g>
                    <g transform="matrix(5.83,0,0,5.83,739.202,114.508)">
                        <path d="M0.34,-0C0.287,-0 0.247,-0.014 0.221,-0.042C0.195,-0.07 0.182,-0.106 0.182,-0.149L0.182,-0.401L0.042,-0.401L0.042,-0.516L0.133,-0.516C0.155,-0.516 0.171,-0.52 0.18,-0.529C0.189,-0.538 0.194,-0.554 0.194,-0.577L0.194,-0.698L0.33,-0.698L0.33,-0.516L0.531,-0.516L0.531,-0.401L0.33,-0.401L0.33,-0.115L0.531,-0.115L0.531,-0L0.34,-0Z" style="fill:#c33;fill-rule:nonzero;"/>
                    </g>
                    <g transform="matrix(10,0,0,10,742.7,111.178)">
                        <path d="M0.426,-0.311C0.426,-0.262 0.421,-0.216 0.41,-0.171C0.399,-0.126 0.384,-0.084 0.365,-0.045C0.345,-0.006 0.323,0.029 0.298,0.06C0.273,0.091 0.246,0.117 0.218,0.138L0.07,0.138C0.101,0.117 0.13,0.092 0.159,0.064C0.187,0.035 0.212,0.004 0.233,-0.03C0.254,-0.064 0.27,-0.1 0.283,-0.139C0.296,-0.178 0.302,-0.218 0.302,-0.26L0.302,-0.362C0.302,-0.404 0.296,-0.444 0.283,-0.483C0.27,-0.522 0.254,-0.558 0.233,-0.592C0.212,-0.626 0.187,-0.657 0.159,-0.686C0.13,-0.714 0.101,-0.739 0.07,-0.76L0.218,-0.76C0.246,-0.739 0.273,-0.713 0.298,-0.682C0.323,-0.651 0.345,-0.616 0.365,-0.577C0.384,-0.538 0.399,-0.497 0.41,-0.452C0.421,-0.407 0.426,-0.36 0.426,-0.311Z" style="fill:#c33;fill-rule:nonzero;"/>
                    </g>
                </g>
            </g>
            <g>
                <circle cx="300.705" cy="144.442" r="10.36" style="fill:none;stroke:#000;stroke-width:1.88px;stroke-linejoin:round;stroke-miterlimit:1.5;"/>
                <circle cx="300.705" cy="144.442" r="10.36" style="fill:#fff;"/>
                <path id="_2" serif:id="2" d="M301.591,149.715L301.591,147.745L296.878,147.745L296.878,146.11L301.037,139.53L303.415,139.53L303.415,146.256L304.787,146.256L304.787,147.745L303.415,147.745L303.415,149.715L301.591,149.715ZM298.44,146.256L301.591,146.256L301.591,141.397L301.475,141.397L298.44,146.256Z" style="fill-rule:nonzero;"/>
            </g>
        </g>
        <g>
            <circle cx="472.14" cy="11.985" r="10.36" style="fill:none;stroke:#000;stroke-width:1.88px;stroke-linejoin:round;stroke-miterlimit:1.5;"/>
            <circle cx="472.14" cy="11.985" r="10.36" style="fill:#fff;"/>
            <path id="_21" serif:id="2" d="M475.262,8.468L470.593,8.468L470.345,11.883L470.462,11.883C470.578,11.669 470.705,11.472 470.841,11.292C470.977,11.112 471.135,10.959 471.315,10.832C471.495,10.706 471.7,10.608 471.928,10.54C472.157,10.472 472.422,10.438 472.723,10.438C473.151,10.438 473.555,10.511 473.934,10.657C474.314,10.803 474.645,11.012 474.927,11.284C475.209,11.557 475.43,11.892 475.591,12.291C475.751,12.69 475.831,13.142 475.831,13.648C475.831,14.154 475.746,14.621 475.576,15.049C475.406,15.477 475.158,15.849 474.832,16.165C474.506,16.481 474.107,16.727 473.635,16.902C473.164,17.077 472.621,17.165 472.008,17.165C471.532,17.165 471.106,17.114 470.732,17.012C470.357,16.909 470.029,16.771 469.747,16.596C469.465,16.421 469.217,16.219 469.003,15.99C468.789,15.762 468.604,15.526 468.448,15.282L469.834,14.188C469.951,14.383 470.08,14.565 470.221,14.735C470.362,14.906 470.52,15.054 470.695,15.18C470.87,15.307 471.067,15.407 471.286,15.479C471.505,15.552 471.755,15.589 472.038,15.589C472.621,15.589 473.066,15.431 473.373,15.115C473.679,14.799 473.832,14.363 473.832,13.809L473.832,13.692C473.832,13.157 473.677,12.739 473.365,12.437C473.054,12.136 472.616,11.985 472.052,11.985C471.624,11.985 471.276,12.065 471.009,12.226C470.741,12.386 470.525,12.559 470.36,12.744L468.798,12.525L469.178,6.805L475.262,6.805L475.262,8.468Z" style="fill-rule:nonzero;"/>
        </g>
        <g transform="matrix(1.77165,0,0,1.77165,-217.499,-128.792)">
            <g transform="matrix(12,0,0,12,447.735,126.191)">
                <path d="M0.079,-0.74L0.188,-0.74L0.188,-0.428L0.194,-0.428C0.209,-0.459 0.23,-0.484 0.255,-0.502C0.28,-0.519 0.312,-0.528 0.35,-0.528C0.411,-0.528 0.459,-0.505 0.495,-0.46C0.531,-0.415 0.549,-0.347 0.549,-0.258C0.549,-0.169 0.531,-0.101 0.495,-0.056C0.459,-0.011 0.411,0.012 0.35,0.012C0.312,0.012 0.28,0.003 0.255,-0.015C0.23,-0.032 0.209,-0.057 0.194,-0.088L0.188,-0.088L0.188,-0L0.079,-0L0.079,-0.74ZM0.305,-0.077C0.346,-0.077 0.378,-0.09 0.401,-0.115C0.423,-0.14 0.434,-0.174 0.434,-0.216L0.434,-0.3C0.434,-0.342 0.423,-0.376 0.401,-0.401C0.378,-0.426 0.346,-0.439 0.305,-0.439C0.289,-0.439 0.274,-0.437 0.26,-0.433C0.246,-0.429 0.234,-0.423 0.223,-0.415C0.212,-0.407 0.204,-0.397 0.198,-0.386C0.191,-0.374 0.188,-0.36 0.188,-0.344L0.188,-0.172C0.188,-0.156 0.191,-0.142 0.198,-0.131C0.204,-0.119 0.212,-0.109 0.223,-0.101C0.234,-0.093 0.246,-0.087 0.26,-0.083C0.274,-0.079 0.289,-0.077 0.305,-0.077Z" style="fill-rule:nonzero;"/>
            </g>
            <g transform="matrix(6.996,0,0,6.996,454.935,130.187)">
                <path d="M0.084,-0.74L0.193,-0.74L0.193,-0.428L0.198,-0.428C0.203,-0.441 0.21,-0.454 0.219,-0.467C0.227,-0.479 0.237,-0.49 0.249,-0.499C0.261,-0.507 0.275,-0.515 0.291,-0.52C0.307,-0.525 0.326,-0.528 0.347,-0.528C0.399,-0.528 0.441,-0.511 0.473,-0.477C0.505,-0.443 0.521,-0.395 0.521,-0.332L0.521,-0L0.412,-0L0.412,-0.316C0.412,-0.398 0.376,-0.439 0.305,-0.439C0.291,-0.439 0.277,-0.437 0.264,-0.434C0.251,-0.43 0.239,-0.424 0.228,-0.417C0.217,-0.41 0.209,-0.4 0.203,-0.389C0.196,-0.378 0.193,-0.365 0.193,-0.35L0.193,-0L0.084,-0L0.084,-0.74Z" style="fill-rule:nonzero;"/>
            </g>
        </g>
        <g id="eth2-block6" serif:id="eth2 block">
            <g>
                <path d="M183.923,44.936L162.673,44.926" style="fill:none;stroke:#000;stroke-width:1.87px;stroke-linejoin:round;stroke-miterlimit:1.5;stroke-dasharray:1.87,3.75,0,0;"/>
                <path d="M151.076,47.584L148.419,44.927L151.076,42.269" style="fill:none;stroke:#000;stroke-width:1.77px;"/>
                <path d="M161.595,44.927L148.419,44.927" style="fill:none;stroke:#000;stroke-width:1.77px;stroke-linejoin:round;stroke-miterlimit:1.5;"/>
            </g>
            <rect x="186.423" y="27.851" width="35.207" height="34.172" style="fill:#a6a6a6;stroke:#000;stroke-width:1.77px;stroke-linejoin:round;stroke-miterlimit:1.5;"/>
        </g>
        <g transform="matrix(1.77165,0,0,1.77165,-672.917,-128.943)">
            <g transform="matrix(12,0,0,12,447.735,126.191)">
                <path d="M0.079,-0.74L0.188,-0.74L0.188,-0.428L0.194,-0.428C0.209,-0.459 0.23,-0.484 0.255,-0.502C0.28,-0.519 0.312,-0.528 0.35,-0.528C0.411,-0.528 0.459,-0.505 0.495,-0.46C0.531,-0.415 0.549,-0.347 0.549,-0.258C0.549,-0.169 0.531,-0.101 0.495,-0.056C0.459,-0.011 0.411,0.012 0.35,0.012C0.312,0.012 0.28,0.003 0.255,-0.015C0.23,-0.032 0.209,-0.057 0.194,-0.088L0.188,-0.088L0.188,-0L0.079,-0L0.079,-0.74ZM0.305,-0.077C0.346,-0.077 0.378,-0.09 0.401,-0.115C0.423,-0.14 0.434,-0.174 0.434,-0.216L0.434,-0.3C0.434,-0.342 0.423,-0.376 0.401,-0.401C0.378,-0.426 0.346,-0.439 0.305,-0.439C0.289,-0.439 0.274,-0.437 0.26,-0.433C0.246,-0.429 0.234,-0.423 0.223,-0.415C0.212,-0.407 0.204,-0.397 0.198,-0.386C0.191,-0.374 0.188,-0.36 0.188,-0.344L0.188,-0.172C0.188,-0.156 0.191,-0.142 0.198,-0.131C0.204,-0.119 0.212,-0.109 0.223,-0.101C0.234,-0.093 0.246,-0.087 0.26,-0.083C0.274,-0.079 0.289,-0.077 0.305,-0.077Z" style="fill-rule:nonzero;"/>
            </g>
            <g transform="matrix(6.996,0,0,6.996,454.935,130.187)">
                <path d="M0.086,-0L0.086,-0.698L0.535,-0.698L0.535,-0.604L0.198,-0.604L0.198,-0.401L0.504,-0.401L0.504,-0.307L0.198,-0.307L0.198,-0L0.086,-0Z" style="fill-rule:nonzero;"/>
            </g>
        </g>
    </g>
    <g id="beacon-chain-1" serif:id="beacon chain 1">
    </g>
</svg>
