<?xml version="1.0" encoding="UTF-8" standalone="no"?>
<!DOCTYPE svg PUBLIC "-//W3C//DTD SVG 1.1//EN" "http://www.w3.org/Graphics/SVG/1.1/DTD/svg11.dtd">
<svg width="100%" height="100%" viewBox="0 0 730 156" version="1.1" xmlns="http://www.w3.org/2000/svg" xmlns:xlink="http://www.w3.org/1999/xlink" xml:space="preserve" xmlns:serif="http://www.serif.com/" style="fill-rule:evenodd;clip-rule:evenodd;stroke-linecap:round;stroke-miterlimit:10;">
    <g id="Background">
        <rect x="-352.481" y="-166.274" width="2298.81" height="1851.74" style="fill:#fff;"/>
    </g>
    <g id="eth1-chain" serif:id="eth1 chain">
        <g id="eth1-block" serif:id="eth1 block">
        </g>
        <g id="eth1-block1" serif:id="eth1 block">
        </g>
        <g id="eth1-block2" serif:id="eth1 block">
        </g>
        <g id="eth1-block3" serif:id="eth1 block">
        </g>
        <g id="eth1-block4" serif:id="eth1 block">
        </g>
        <g id="eth1-block5" serif:id="eth1 block">
        </g>
        <g id="eth1-block6" serif:id="eth1 block">
        </g>
        <g id="eth1-genesis" serif:id="eth1 genesis">
        </g>
        <g id="eth1-fin-block" serif:id="eth1 fin block">
        </g>
        <g id="eth1-fin-block1" serif:id="eth1 fin block">
        </g>
        <g id="eth1-block7" serif:id="eth1 block">
        </g>
        <g id="sync-line-1" serif:id="sync line 1">
        </g>
    </g>
    <g id="beacon-chain-2" serif:id="beacon chain 2">
    </g>
    <g id="beacon-chain-1" serif:id="beacon chain 1">
        <g>
            <rect x="491.373" y="29.635" width="35.207" height="34.172" style="fill:#a6a6a6;"/>
            <path d="M527.466,29.635C527.466,29.145 527.07,28.749 526.58,28.749L491.373,28.749C490.884,28.749 490.487,29.145 490.487,29.635L490.487,63.807C490.487,64.296 490.884,64.693 491.373,64.693L526.58,64.693C527.07,64.693 527.466,64.296 527.466,63.807L527.466,29.635ZM525.694,30.521L525.694,62.921C525.694,62.921 492.259,62.921 492.259,62.921C492.259,62.921 492.259,30.521 492.259,30.521L525.694,30.521Z"/>
            <path d="M469.362,49.533L466.705,46.875L469.362,44.218" style="fill:none;stroke:#000;stroke-width:1.77px;"/>
            <path d="M491.381,46.875L466.705,46.875" style="fill:none;stroke:#000;stroke-width:1.77px;stroke-linejoin:round;stroke-miterlimit:1.5;"/>
        </g>
        <g transform="matrix(1.77165,0,0,1.77165,-291.99,-124.763)">
            <g transform="matrix(12,0,0,12,447.735,126.191)">
                <path d="M0.079,-0.74L0.188,-0.74L0.188,-0.428L0.194,-0.428C0.209,-0.459 0.23,-0.484 0.255,-0.502C0.28,-0.519 0.312,-0.528 0.35,-0.528C0.411,-0.528 0.459,-0.505 0.495,-0.46C0.531,-0.415 0.549,-0.347 0.549,-0.258C0.549,-0.169 0.531,-0.101 0.495,-0.056C0.459,-0.011 0.411,0.012 0.35,0.012C0.312,0.012 0.28,0.003 0.255,-0.015C0.23,-0.032 0.209,-0.057 0.194,-0.088L0.188,-0.088L0.188,-0L0.079,-0L0.079,-0.74ZM0.305,-0.077C0.346,-0.077 0.378,-0.09 0.401,-0.115C0.423,-0.14 0.434,-0.174 0.434,-0.216L0.434,-0.3C0.434,-0.342 0.423,-0.376 0.401,-0.401C0.378,-0.426 0.346,-0.439 0.305,-0.439C0.289,-0.439 0.274,-0.437 0.26,-0.433C0.246,-0.429 0.234,-0.423 0.223,-0.415C0.212,-0.407 0.204,-0.397 0.198,-0.386C0.191,-0.374 0.188,-0.36 0.188,-0.344L0.188,-0.172C0.188,-0.156 0.191,-0.142 0.198,-0.131C0.204,-0.119 0.212,-0.109 0.223,-0.101C0.234,-0.093 0.246,-0.087 0.26,-0.083C0.274,-0.079 0.289,-0.077 0.305,-0.077Z" style="fill-rule:nonzero;"/>
            </g>
            <g transform="matrix(6.996,0,0,6.996,454.935,130.187)">
                <path d="M0.086,-0L0.086,-0.698L0.535,-0.698L0.535,-0.604L0.198,-0.604L0.198,-0.401L0.504,-0.401L0.504,-0.307L0.198,-0.307L0.198,-0L0.086,-0Z" style="fill-rule:nonzero;"/>
            </g>
        </g>
        <g transform="matrix(1.77165,0,0,1.77165,-735.386,-124.706)">
            <g transform="matrix(12,0,0,12,447.735,126.191)">
                <path d="M0.079,-0.74L0.188,-0.74L0.188,-0.428L0.194,-0.428C0.209,-0.459 0.23,-0.484 0.255,-0.502C0.28,-0.519 0.312,-0.528 0.35,-0.528C0.411,-0.528 0.459,-0.505 0.495,-0.46C0.531,-0.415 0.549,-0.347 0.549,-0.258C0.549,-0.169 0.531,-0.101 0.495,-0.056C0.459,-0.011 0.411,0.012 0.35,0.012C0.312,0.012 0.28,0.003 0.255,-0.015C0.23,-0.032 0.209,-0.057 0.194,-0.088L0.188,-0.088L0.188,-0L0.079,-0L0.079,-0.74ZM0.305,-0.077C0.346,-0.077 0.378,-0.09 0.401,-0.115C0.423,-0.14 0.434,-0.174 0.434,-0.216L0.434,-0.3C0.434,-0.342 0.423,-0.376 0.401,-0.401C0.378,-0.426 0.346,-0.439 0.305,-0.439C0.289,-0.439 0.274,-0.437 0.26,-0.433C0.246,-0.429 0.234,-0.423 0.223,-0.415C0.212,-0.407 0.204,-0.397 0.198,-0.386C0.191,-0.374 0.188,-0.36 0.188,-0.344L0.188,-0.172C0.188,-0.156 0.191,-0.142 0.198,-0.131C0.204,-0.119 0.212,-0.109 0.223,-0.101C0.234,-0.093 0.246,-0.087 0.26,-0.083C0.274,-0.079 0.289,-0.077 0.305,-0.077Z" style="fill-rule:nonzero;"/>
            </g>
            <g transform="matrix(6.996,0,0,6.996,454.935,130.187)">
                <path d="M0.075,-0L0.025,-0.698L0.123,-0.698L0.148,-0.292L0.159,-0.113L0.167,-0.113L0.246,-0.529L0.357,-0.529L0.436,-0.113L0.444,-0.113L0.455,-0.292L0.481,-0.698L0.575,-0.698L0.525,-0L0.375,-0L0.304,-0.404L0.296,-0.404L0.225,-0L0.075,-0Z" style="fill-rule:nonzero;"/>
            </g>
        </g>
        <g id="eth2-init-block" serif:id="eth2 init block">
            <g id="eth2-block" serif:id="eth2 block">
                <rect x="49.558" y="29.635" width="35.207" height="34.172" style="fill:#a6a6a6;stroke:#000;stroke-width:1.77px;stroke-linejoin:round;stroke-miterlimit:1.5;"/>
                <g>
                    <path d="M49.678,46.721L23.749,46.721" style="fill:none;"/>
                    <path d="M27.659,49.378L25.001,46.721L27.659,44.063" style="fill:none;stroke:#000;stroke-width:1.77px;"/>
                    <path d="M49.678,46.721L25.001,46.721" style="fill:none;stroke:#000;stroke-width:1.77px;stroke-linejoin:round;stroke-miterlimit:1.5;"/>
                </g>
            </g>
            <path d="M60.235,56.493C59.712,59.115 59.717,61.993 60.251,64.612C57.596,64.925 54.861,65.82 52.535,67.137C51.417,64.709 49.72,62.384 47.749,60.578C49.713,58.765 51.4,56.433 52.507,54C54.839,55.307 57.578,56.191 60.235,56.493Z" style="fill:none;stroke:#000;stroke-width:3.54px;stroke-linejoin:round;stroke-miterlimit:1.5;"/>
            <path d="M60.235,56.493C59.712,59.115 59.717,61.993 60.251,64.612C57.596,64.925 54.861,65.82 52.535,67.137C51.417,64.709 49.72,62.384 47.749,60.578C49.713,58.765 51.4,56.433 52.507,54C54.839,55.307 57.578,56.191 60.235,56.493Z" style="fill:#a159a6;"/>
        </g>
        <g id="eth2-block1" serif:id="eth2 block">
            <rect x="110.808" y="29.635" width="35.207" height="34.172" style="fill:#a6a6a6;stroke:#000;stroke-width:1.77px;stroke-linejoin:round;stroke-miterlimit:1.5;"/>
            <g>
                <path d="M110.928,46.721L84.999,46.721" style="fill:none;"/>
                <path d="M88.909,49.378L86.251,46.721L88.909,44.063" style="fill:none;stroke:#000;stroke-width:1.77px;"/>
                <path d="M110.928,46.721L86.251,46.721" style="fill:none;stroke:#000;stroke-width:1.77px;stroke-linejoin:round;stroke-miterlimit:1.5;"/>
            </g>
        </g>
        <g id="eth2-block2" serif:id="eth2 block">
            <rect x="171.824" y="29.635" width="35.207" height="34.172" style="fill:#a6a6a6;stroke:#000;stroke-width:1.77px;stroke-linejoin:round;stroke-miterlimit:1.5;"/>
            <g>
                <path d="M171.944,46.721L146.015,46.721" style="fill:none;"/>
                <path d="M149.925,49.378L147.268,46.721L149.925,44.063" style="fill:none;stroke:#000;stroke-width:1.77px;"/>
                <path d="M171.944,46.721L147.268,46.721" style="fill:none;stroke:#000;stroke-width:1.77px;stroke-linejoin:round;stroke-miterlimit:1.5;"/>
            </g>
        </g>
        <g id="eth2-block3" serif:id="eth2 block">
            <rect x="232.84" y="29.635" width="35.207" height="34.172" style="fill:#a6a6a6;stroke:#000;stroke-width:1.77px;stroke-linejoin:round;stroke-miterlimit:1.5;"/>
            <g>
                <path d="M232.96,46.721L207.031,46.721" style="fill:none;"/>
                <path d="M210.941,49.378L208.284,46.721L210.941,44.063" style="fill:none;stroke:#000;stroke-width:1.77px;"/>
                <path d="M232.96,46.721L208.284,46.721" style="fill:none;stroke:#000;stroke-width:1.77px;stroke-linejoin:round;stroke-miterlimit:1.5;"/>
            </g>
        </g>
        <g id="eth2-block4" serif:id="eth2 block">
            <rect x="307.921" y="29.635" width="35.207" height="34.172" style="fill:#a6a6a6;stroke:#000;stroke-width:1.77px;stroke-linejoin:round;stroke-miterlimit:1.5;"/>
            <g>
                <path d="M305.421,46.72L284.171,46.712" style="fill:none;stroke:#000;stroke-width:1.88px;stroke-linejoin:round;stroke-miterlimit:1.5;stroke-dasharray:1.88,3.75,0,0;"/>
                <path d="M272.574,49.368L269.917,46.711L272.574,44.053" style="fill:none;stroke:#000;stroke-width:1.77px;"/>
                <path d="M283.093,46.711L269.917,46.711" style="fill:none;stroke:#000;stroke-width:1.77px;stroke-linejoin:round;stroke-miterlimit:1.5;"/>
            </g>
        </g>
        <g id="eth2-block5" serif:id="eth2 block">
            <rect x="369.228" y="29.635" width="35.207" height="34.172" style="fill:#a6a6a6;stroke:#000;stroke-width:1.77px;stroke-linejoin:round;stroke-miterlimit:1.5;"/>
            <g>
                <path d="M369.349,46.721L343.42,46.721" style="fill:none;"/>
                <path d="M347.33,49.378L344.672,46.721L347.33,44.063" style="fill:none;stroke:#000;stroke-width:1.77px;"/>
                <path d="M369.349,46.721L344.672,46.721" style="fill:none;stroke:#000;stroke-width:1.77px;stroke-linejoin:round;stroke-miterlimit:1.5;"/>
            </g>
        </g>
        <g id="eth2-block6" serif:id="eth2 block">
            <rect x="430.245" y="29.635" width="35.207" height="34.172" style="fill:#a6a6a6;stroke:#000;stroke-width:1.77px;stroke-linejoin:round;stroke-miterlimit:1.5;"/>
            <g>
                <path d="M430.365,46.721L404.436,46.721" style="fill:none;"/>
                <path d="M408.346,49.378L405.689,46.721L408.346,44.063" style="fill:none;stroke:#000;stroke-width:1.77px;"/>
                <path d="M430.365,46.721L405.689,46.721" style="fill:none;stroke:#000;stroke-width:1.77px;stroke-linejoin:round;stroke-miterlimit:1.5;"/>
            </g>
        </g>
        <g id="eth2-block7" serif:id="eth2 block">
            <g>
                <path d="M552.396,47.129L526.467,47.129" style="fill:none;"/>
                <path d="M530.378,49.787L527.72,47.129L530.378,44.472" style="fill:none;stroke:#000;stroke-width:1.77px;"/>
                <path d="M552.396,47.129L527.72,47.129" style="fill:none;stroke:#000;stroke-width:1.77px;stroke-linejoin:round;stroke-miterlimit:1.5;"/>
            </g>
            <rect x="552.396" y="30.043" width="35.207" height="34.172" style="fill:#ebebeb;stroke:#000;stroke-width:1.77px;stroke-linejoin:round;stroke-miterlimit:1.5;"/>
        </g>
        <g id="eth2-block8" serif:id="eth2 block">
            <g>
                <path d="M613.533,47.129L587.604,47.129" style="fill:none;"/>
                <path d="M591.514,49.787L588.856,47.129L591.514,44.472" style="fill:none;stroke:#000;stroke-width:1.77px;"/>
                <path d="M613.533,47.129L588.856,47.129" style="fill:none;stroke:#000;stroke-width:1.77px;stroke-linejoin:round;stroke-miterlimit:1.5;"/>
            </g>
            <rect x="613.533" y="30.043" width="35.207" height="34.172" style="fill:#ebebeb;stroke:#000;stroke-width:1.77px;stroke-linejoin:round;stroke-miterlimit:1.5;"/>
        </g>
        <g id="sync-line" serif:id="sync line">
            <path d="M484.629,87.955L488.379,91.705L484.629,95.455" style="fill:none;stroke:#000;stroke-width:2.5px;"/>
            <path d="M83.046,91.705L488.379,91.705" style="fill:none;stroke:#000;stroke-width:2.5px;stroke-linejoin:round;stroke-miterlimit:1.5;"/>
        </g>
        <g>
            <circle cx="193.21" cy="91.705" r="10.36" style="fill:none;stroke:#000;stroke-width:1.88px;stroke-linejoin:round;stroke-miterlimit:1.5;"/>
            <circle cx="193.21" cy="91.705" r="10.36" style="fill:#fff;"/>
            <path d="M196.887,96.885L189.708,96.885L189.708,95.105L192.976,92.318C193.521,91.851 193.925,91.425 194.188,91.041C194.45,90.657 194.581,90.246 194.581,89.808L194.581,89.662C194.581,89.175 194.445,88.806 194.173,88.553C193.901,88.3 193.521,88.174 193.035,88.174C192.5,88.174 192.091,88.319 191.809,88.611C191.527,88.903 191.323,89.263 191.196,89.691L189.533,89.064C189.64,88.733 189.793,88.414 189.992,88.108C190.192,87.801 190.44,87.532 190.737,87.298C191.033,87.065 191.386,86.877 191.795,86.736C192.203,86.595 192.67,86.525 193.195,86.525C193.74,86.525 194.224,86.6 194.647,86.751C195.07,86.902 195.428,87.111 195.72,87.378C196.011,87.646 196.233,87.964 196.384,88.334C196.534,88.704 196.61,89.107 196.61,89.545C196.61,89.963 196.544,90.348 196.413,90.698C196.281,91.048 196.099,91.381 195.866,91.697C195.632,92.014 195.357,92.318 195.041,92.609C194.725,92.901 194.382,93.193 194.012,93.485L191.795,95.28L196.887,95.28L196.887,96.885Z" style="fill-rule:nonzero;"/>
        </g>
        <g>
            <g>
                <path d="M525.684,121.123L522.079,122.707L520.495,119.102" style="fill:none;stroke:#c33;stroke-width:1.88px;"/>
                <path d="M510.874,21.442C525.759,-1.209 566.909,7.211 522.079,122.707" style="fill:none;stroke:#c33;stroke-width:1.88px;stroke-linejoin:round;stroke-miterlimit:1.5;stroke-dasharray:1.88,1.88;"/>
                <g transform="matrix(1.25,0,0,1.25,-366.048,2.69244)">
                    <g transform="matrix(10,0,0,10,684.206,111.178)">
                        <path d="M0.071,-0.115L0.223,-0.115L0.223,-0.401L0.061,-0.401L0.061,-0.516L0.223,-0.516L0.223,-0.591C0.223,-0.635 0.236,-0.671 0.262,-0.699C0.287,-0.726 0.327,-0.74 0.381,-0.74L0.556,-0.74L0.556,-0.625L0.371,-0.625L0.371,-0.516L0.556,-0.516L0.556,-0.401L0.371,-0.401L0.371,-0.115L0.533,-0.115L0.533,-0L0.071,-0L0.071,-0.115Z" style="fill:#c33;fill-rule:nonzero;"/>
                    </g>
                    <g transform="matrix(10,0,0,10,690.206,111.178)">
                        <path d="M0.332,-0.582C0.299,-0.582 0.276,-0.589 0.263,-0.603C0.249,-0.616 0.243,-0.633 0.243,-0.652L0.243,-0.681C0.243,-0.701 0.249,-0.718 0.263,-0.731C0.276,-0.744 0.299,-0.751 0.332,-0.751C0.365,-0.751 0.389,-0.744 0.402,-0.731C0.415,-0.718 0.421,-0.701 0.421,-0.681L0.421,-0.652C0.421,-0.633 0.415,-0.616 0.402,-0.603C0.389,-0.589 0.365,-0.582 0.332,-0.582ZM0.094,-0.115L0.258,-0.115L0.258,-0.401L0.094,-0.401L0.094,-0.516L0.406,-0.516L0.406,-0.115L0.558,-0.115L0.558,-0L0.094,-0L0.094,-0.115Z" style="fill:#c33;fill-rule:nonzero;"/>
                    </g>
                    <g transform="matrix(10,0,0,10,696.206,111.178)">
                        <path d="M0.065,-0L0.065,-0.516L0.213,-0.516L0.213,-0.422L0.219,-0.422C0.225,-0.437 0.232,-0.45 0.241,-0.463C0.25,-0.476 0.26,-0.487 0.273,-0.497C0.285,-0.506 0.299,-0.514 0.316,-0.52C0.332,-0.525 0.35,-0.528 0.371,-0.528C0.396,-0.528 0.418,-0.524 0.439,-0.516C0.46,-0.507 0.477,-0.495 0.492,-0.478C0.507,-0.461 0.518,-0.441 0.527,-0.417C0.535,-0.393 0.539,-0.365 0.539,-0.334L0.539,-0L0.391,-0L0.391,-0.314C0.391,-0.381 0.362,-0.414 0.304,-0.414C0.293,-0.414 0.282,-0.413 0.271,-0.41C0.26,-0.407 0.25,-0.402 0.241,-0.396C0.232,-0.389 0.226,-0.381 0.221,-0.372C0.216,-0.363 0.213,-0.352 0.213,-0.339L0.213,-0L0.065,-0Z" style="fill:#c33;fill-rule:nonzero;"/>
                    </g>
                    <g transform="matrix(10,0,0,10,702.206,111.178)">
                        <path d="M0.487,-0C0.456,-0 0.432,-0.008 0.413,-0.024C0.394,-0.039 0.383,-0.062 0.38,-0.091L0.375,-0.091C0.366,-0.057 0.347,-0.031 0.32,-0.014C0.292,0.003 0.258,0.012 0.218,0.012C0.168,0.012 0.128,-0.002 0.098,-0.029C0.067,-0.056 0.052,-0.093 0.052,-0.142C0.052,-0.196 0.072,-0.236 0.111,-0.262C0.15,-0.288 0.208,-0.301 0.284,-0.301L0.367,-0.301L0.367,-0.327C0.367,-0.358 0.36,-0.381 0.346,-0.397C0.331,-0.412 0.307,-0.42 0.273,-0.42C0.242,-0.42 0.216,-0.414 0.197,-0.402C0.178,-0.39 0.161,-0.374 0.147,-0.355L0.066,-0.427C0.083,-0.456 0.111,-0.481 0.148,-0.5C0.185,-0.519 0.232,-0.528 0.29,-0.528C0.361,-0.528 0.416,-0.512 0.456,-0.48C0.495,-0.447 0.515,-0.398 0.515,-0.333L0.515,-0.107L0.572,-0.107L0.572,-0L0.487,-0ZM0.274,-0.085C0.3,-0.085 0.322,-0.091 0.34,-0.104C0.358,-0.117 0.367,-0.135 0.367,-0.159L0.367,-0.221L0.288,-0.221C0.227,-0.221 0.197,-0.201 0.197,-0.16L0.197,-0.14C0.197,-0.122 0.204,-0.108 0.218,-0.099C0.232,-0.09 0.251,-0.085 0.274,-0.085Z" style="fill:#c33;fill-rule:nonzero;"/>
                    </g>
                    <g transform="matrix(10,0,0,10,708.206,111.178)">
                        <path d="M0.068,-0.115L0.226,-0.115L0.226,-0.625L0.068,-0.625L0.068,-0.74L0.374,-0.74L0.374,-0.115L0.532,-0.115L0.532,-0L0.068,-0L0.068,-0.115Z" style="fill:#c33;fill-rule:nonzero;"/>
                    </g>
                    <g transform="matrix(10,0,0,10,714.206,111.178)">
                        <path d="M0.174,-0.311C0.174,-0.36 0.18,-0.407 0.191,-0.452C0.202,-0.497 0.217,-0.538 0.236,-0.577C0.255,-0.616 0.277,-0.651 0.302,-0.682C0.327,-0.713 0.354,-0.739 0.382,-0.76L0.53,-0.76C0.499,-0.739 0.469,-0.714 0.441,-0.686C0.413,-0.657 0.389,-0.626 0.368,-0.592C0.347,-0.558 0.33,-0.522 0.317,-0.483C0.304,-0.444 0.298,-0.404 0.298,-0.362L0.298,-0.26C0.298,-0.218 0.304,-0.178 0.317,-0.139C0.33,-0.1 0.347,-0.064 0.368,-0.03C0.389,0.004 0.413,0.035 0.441,0.064C0.469,0.092 0.499,0.117 0.53,0.138L0.382,0.138C0.354,0.117 0.327,0.091 0.302,0.06C0.277,0.029 0.255,-0.006 0.236,-0.045C0.217,-0.084 0.202,-0.126 0.191,-0.171C0.18,-0.216 0.174,-0.262 0.174,-0.311Z" style="fill:#c33;fill-rule:nonzero;"/>
                    </g>
                    <g transform="matrix(10,0,0,10,720.206,111.178)">
                        <path d="M0.077,-0.698L0.322,-0.698C0.391,-0.698 0.443,-0.681 0.48,-0.648C0.516,-0.615 0.534,-0.569 0.534,-0.512C0.534,-0.472 0.524,-0.44 0.505,-0.417C0.485,-0.393 0.457,-0.376 0.42,-0.365L0.42,-0.359C0.463,-0.348 0.497,-0.33 0.521,-0.303C0.544,-0.276 0.556,-0.239 0.556,-0.192C0.556,-0.133 0.538,-0.087 0.501,-0.052C0.464,-0.017 0.412,-0 0.345,-0L0.077,-0L0.077,-0.698ZM0.299,-0.105C0.335,-0.105 0.361,-0.111 0.378,-0.123C0.395,-0.135 0.403,-0.157 0.403,-0.189L0.403,-0.218C0.403,-0.25 0.395,-0.272 0.378,-0.284C0.361,-0.296 0.335,-0.302 0.299,-0.302L0.223,-0.302L0.223,-0.105L0.299,-0.105ZM0.28,-0.402C0.315,-0.402 0.341,-0.408 0.357,-0.42C0.373,-0.431 0.381,-0.452 0.381,-0.483L0.381,-0.513C0.381,-0.544 0.373,-0.565 0.357,-0.576C0.341,-0.587 0.315,-0.593 0.28,-0.593L0.223,-0.593L0.223,-0.402L0.28,-0.402Z" style="fill:#c33;fill-rule:nonzero;"/>
                    </g>
                    <g transform="matrix(5.83,0,0,5.83,726.206,114.508)">
                        <path d="M0.08,-0L0.08,-0.698L0.543,-0.698L0.543,-0.575L0.23,-0.575L0.23,-0.415L0.51,-0.415L0.51,-0.292L0.23,-0.292L0.23,-0L0.08,-0Z" style="fill:#c33;fill-rule:nonzero;"/>
                    </g>
                    <g transform="matrix(10,0,0,10,729.704,111.178)">
                        <path d="M0.426,-0.311C0.426,-0.262 0.421,-0.216 0.41,-0.171C0.399,-0.126 0.384,-0.084 0.365,-0.045C0.345,-0.006 0.323,0.029 0.298,0.06C0.273,0.091 0.246,0.117 0.218,0.138L0.07,0.138C0.101,0.117 0.13,0.092 0.159,0.064C0.187,0.035 0.212,0.004 0.233,-0.03C0.254,-0.064 0.27,-0.1 0.283,-0.139C0.296,-0.178 0.302,-0.218 0.302,-0.26L0.302,-0.362C0.302,-0.404 0.296,-0.444 0.283,-0.483C0.27,-0.522 0.254,-0.558 0.233,-0.592C0.212,-0.626 0.187,-0.657 0.159,-0.686C0.13,-0.714 0.101,-0.739 0.07,-0.76L0.218,-0.76C0.246,-0.739 0.273,-0.713 0.298,-0.682C0.323,-0.651 0.345,-0.616 0.365,-0.577C0.384,-0.538 0.399,-0.497 0.41,-0.452C0.421,-0.407 0.426,-0.36 0.426,-0.311Z" style="fill:#c33;fill-rule:nonzero;"/>
                    </g>
                </g>
            </g>
            <g>
                <circle cx="531.827" cy="13.927" r="10.36" style="fill:none;stroke:#000;stroke-width:1.88px;stroke-linejoin:round;stroke-miterlimit:1.5;"/>
                <circle cx="531.827" cy="13.927" r="10.36" style="fill:#fff;"/>
                <path id="_2" serif:id="2" d="M531.601,12.95C532.214,12.95 532.664,12.828 532.951,12.585C533.238,12.342 533.381,12.035 533.381,11.666L533.381,11.563C533.381,11.145 533.243,10.819 532.965,10.586C532.688,10.352 532.306,10.236 531.82,10.236C531.353,10.236 530.944,10.343 530.594,10.557C530.244,10.771 529.943,11.072 529.69,11.461L528.449,10.352C528.624,10.119 528.821,9.898 529.04,9.688C529.259,9.479 529.507,9.299 529.784,9.149C530.062,8.998 530.371,8.879 530.711,8.791C531.051,8.703 531.441,8.66 531.878,8.66C532.394,8.66 532.868,8.721 533.301,8.842C533.734,8.964 534.104,9.141 534.41,9.375C534.716,9.608 534.955,9.888 535.125,10.214C535.295,10.54 535.38,10.907 535.38,11.315C535.38,11.636 535.327,11.928 535.22,12.191C535.113,12.454 534.969,12.682 534.789,12.877C534.609,13.071 534.4,13.232 534.162,13.358C533.924,13.485 533.668,13.577 533.396,13.635L533.396,13.708C533.697,13.767 533.98,13.862 534.242,13.993C534.505,14.124 534.733,14.292 534.928,14.496C535.123,14.701 535.278,14.946 535.395,15.233C535.512,15.52 535.57,15.844 535.57,16.204C535.57,16.651 535.478,17.06 535.293,17.429C535.108,17.799 534.848,18.115 534.512,18.378C534.176,18.64 533.773,18.842 533.301,18.983C532.829,19.124 532.301,19.195 531.718,19.195C531.231,19.195 530.799,19.144 530.419,19.042C530.04,18.939 529.704,18.801 529.412,18.626C529.121,18.451 528.868,18.249 528.654,18.02C528.44,17.792 528.25,17.556 528.085,17.312L529.5,16.218C529.743,16.627 530.033,16.962 530.368,17.225C530.704,17.488 531.163,17.619 531.747,17.619C532.331,17.619 532.781,17.485 533.097,17.218C533.413,16.95 533.571,16.578 533.571,16.101L533.571,15.985C533.571,15.518 533.401,15.16 533.06,14.912C532.72,14.664 532.238,14.54 531.616,14.54L530.594,14.54L530.594,12.95L531.601,12.95Z" style="fill-rule:nonzero;"/>
            </g>
        </g>
        <g>
            <g>
                <path d="M83.184,121.123L79.579,122.707L77.995,119.102" style="fill:none;stroke:#c33;stroke-width:1.88px;"/>
                <path d="M68.374,21.442C83.259,-1.209 124.409,7.211 79.579,122.707" style="fill:none;stroke:#c33;stroke-width:1.88px;stroke-linejoin:round;stroke-miterlimit:1.5;stroke-dasharray:1.88,1.88;"/>
                <g transform="matrix(1.25,0,0,1.25,-813.548,2.69244)">
                    <g transform="matrix(10,0,0,10,684.206,111.178)">
                        <path d="M0.321,0.012C0.28,0.012 0.244,0.006 0.212,-0.007C0.179,-0.019 0.152,-0.037 0.13,-0.06C0.107,-0.083 0.09,-0.112 0.078,-0.145C0.066,-0.178 0.06,-0.216 0.06,-0.258C0.06,-0.3 0.066,-0.338 0.078,-0.371C0.09,-0.404 0.107,-0.433 0.13,-0.456C0.152,-0.479 0.179,-0.497 0.212,-0.51C0.244,-0.522 0.28,-0.528 0.32,-0.528C0.377,-0.528 0.422,-0.517 0.457,-0.494C0.491,-0.47 0.517,-0.44 0.535,-0.402L0.421,-0.34C0.412,-0.36 0.4,-0.377 0.385,-0.39C0.37,-0.403 0.348,-0.41 0.32,-0.41C0.286,-0.41 0.26,-0.4 0.242,-0.381C0.223,-0.361 0.214,-0.334 0.214,-0.3L0.214,-0.216C0.214,-0.182 0.223,-0.155 0.242,-0.136C0.26,-0.116 0.287,-0.106 0.322,-0.106C0.351,-0.106 0.373,-0.113 0.39,-0.126C0.406,-0.139 0.42,-0.157 0.431,-0.178L0.543,-0.114C0.524,-0.076 0.497,-0.046 0.462,-0.023C0.426,0.001 0.379,0.012 0.321,0.012Z" style="fill:#c33;fill-rule:nonzero;"/>
                    </g>
                    <g transform="matrix(10,0,0,10,690.206,111.178)">
                        <path d="M0.065,-0.74L0.213,-0.74L0.213,-0.422L0.219,-0.422C0.225,-0.437 0.232,-0.45 0.241,-0.463C0.25,-0.476 0.26,-0.487 0.273,-0.497C0.285,-0.506 0.299,-0.514 0.316,-0.52C0.332,-0.525 0.35,-0.528 0.371,-0.528C0.396,-0.528 0.418,-0.524 0.439,-0.516C0.46,-0.507 0.477,-0.495 0.492,-0.478C0.507,-0.461 0.518,-0.441 0.527,-0.417C0.535,-0.393 0.539,-0.365 0.539,-0.334L0.539,-0L0.391,-0L0.391,-0.314C0.391,-0.381 0.362,-0.414 0.304,-0.414C0.293,-0.414 0.282,-0.413 0.271,-0.41C0.26,-0.407 0.25,-0.402 0.241,-0.396C0.232,-0.389 0.226,-0.381 0.221,-0.372C0.216,-0.363 0.213,-0.352 0.213,-0.339L0.213,-0L0.065,-0L0.065,-0.74Z" style="fill:#c33;fill-rule:nonzero;"/>
                    </g>
                    <g transform="matrix(10,0,0,10,696.206,111.178)">
                        <path d="M0.314,0.012C0.227,0.012 0.162,-0.012 0.117,-0.06C0.072,-0.108 0.05,-0.173 0.05,-0.256C0.05,-0.298 0.056,-0.336 0.068,-0.37C0.079,-0.403 0.096,-0.432 0.118,-0.456C0.139,-0.479 0.166,-0.497 0.197,-0.51C0.228,-0.522 0.262,-0.528 0.301,-0.528C0.34,-0.528 0.374,-0.522 0.405,-0.51C0.436,-0.497 0.462,-0.48 0.483,-0.457C0.504,-0.434 0.521,-0.407 0.533,-0.375C0.544,-0.342 0.55,-0.306 0.55,-0.266L0.55,-0.222L0.197,-0.222L0.197,-0.213C0.197,-0.18 0.207,-0.153 0.228,-0.133C0.249,-0.112 0.279,-0.102 0.319,-0.102C0.35,-0.102 0.376,-0.108 0.398,-0.12C0.42,-0.131 0.439,-0.147 0.455,-0.166L0.535,-0.079C0.515,-0.054 0.487,-0.033 0.451,-0.015C0.415,0.003 0.369,0.012 0.314,0.012ZM0.302,-0.422C0.27,-0.422 0.245,-0.412 0.226,-0.393C0.207,-0.373 0.197,-0.346 0.197,-0.313L0.197,-0.305L0.405,-0.305L0.405,-0.313C0.405,-0.347 0.396,-0.374 0.378,-0.393C0.359,-0.412 0.334,-0.422 0.302,-0.422Z" style="fill:#c33;fill-rule:nonzero;"/>
                    </g>
                    <g transform="matrix(10,0,0,10,702.206,111.178)">
                        <path d="M0.321,0.012C0.28,0.012 0.244,0.006 0.212,-0.007C0.179,-0.019 0.152,-0.037 0.13,-0.06C0.107,-0.083 0.09,-0.112 0.078,-0.145C0.066,-0.178 0.06,-0.216 0.06,-0.258C0.06,-0.3 0.066,-0.338 0.078,-0.371C0.09,-0.404 0.107,-0.433 0.13,-0.456C0.152,-0.479 0.179,-0.497 0.212,-0.51C0.244,-0.522 0.28,-0.528 0.32,-0.528C0.377,-0.528 0.422,-0.517 0.457,-0.494C0.491,-0.47 0.517,-0.44 0.535,-0.402L0.421,-0.34C0.412,-0.36 0.4,-0.377 0.385,-0.39C0.37,-0.403 0.348,-0.41 0.32,-0.41C0.286,-0.41 0.26,-0.4 0.242,-0.381C0.223,-0.361 0.214,-0.334 0.214,-0.3L0.214,-0.216C0.214,-0.182 0.223,-0.155 0.242,-0.136C0.26,-0.116 0.287,-0.106 0.322,-0.106C0.351,-0.106 0.373,-0.113 0.39,-0.126C0.406,-0.139 0.42,-0.157 0.431,-0.178L0.543,-0.114C0.524,-0.076 0.497,-0.046 0.462,-0.023C0.426,0.001 0.379,0.012 0.321,0.012Z" style="fill:#c33;fill-rule:nonzero;"/>
                    </g>
                    <g transform="matrix(10,0,0,10,708.206,111.178)">
                        <path d="M0.065,-0.74L0.213,-0.74L0.213,-0.32L0.22,-0.32L0.289,-0.401L0.397,-0.516L0.567,-0.516L0.367,-0.312L0.588,-0L0.412,-0L0.262,-0.228L0.213,-0.179L0.213,-0L0.065,-0L0.065,-0.74Z" style="fill:#c33;fill-rule:nonzero;"/>
                    </g>
                    <g transform="matrix(10,0,0,10,714.206,111.178)">
                        <path d="M0.059,-0.516L0.207,-0.516L0.207,-0.422L0.214,-0.422C0.227,-0.453 0.245,-0.478 0.269,-0.498C0.293,-0.518 0.326,-0.528 0.367,-0.528C0.396,-0.528 0.422,-0.523 0.446,-0.512C0.469,-0.501 0.49,-0.485 0.507,-0.463C0.524,-0.441 0.537,-0.413 0.547,-0.379C0.556,-0.345 0.561,-0.305 0.561,-0.258C0.561,-0.211 0.556,-0.171 0.547,-0.137C0.537,-0.103 0.524,-0.075 0.507,-0.053C0.49,-0.031 0.469,-0.015 0.446,-0.004C0.422,0.007 0.396,0.012 0.367,0.012C0.326,0.012 0.293,0.002 0.269,-0.018C0.245,-0.037 0.227,-0.063 0.214,-0.094L0.207,-0.094L0.207,0.2L0.059,0.2L0.059,-0.516ZM0.303,-0.103C0.336,-0.103 0.362,-0.113 0.38,-0.134C0.398,-0.154 0.407,-0.182 0.407,-0.218L0.407,-0.298C0.407,-0.334 0.398,-0.362 0.38,-0.383C0.362,-0.403 0.336,-0.413 0.303,-0.413C0.277,-0.413 0.255,-0.407 0.236,-0.394C0.217,-0.381 0.207,-0.361 0.207,-0.334L0.207,-0.182C0.207,-0.155 0.217,-0.135 0.236,-0.122C0.255,-0.109 0.277,-0.103 0.303,-0.103Z" style="fill:#c33;fill-rule:nonzero;"/>
                    </g>
                    <g transform="matrix(10,0,0,10,720.206,111.178)">
                        <path d="M0.3,0.012C0.26,0.012 0.224,0.006 0.192,-0.007C0.16,-0.019 0.133,-0.037 0.111,-0.06C0.088,-0.083 0.071,-0.112 0.059,-0.145C0.047,-0.178 0.041,-0.216 0.041,-0.258C0.041,-0.3 0.047,-0.338 0.059,-0.371C0.071,-0.404 0.088,-0.433 0.111,-0.456C0.133,-0.479 0.16,-0.497 0.192,-0.51C0.224,-0.522 0.26,-0.528 0.3,-0.528C0.34,-0.528 0.376,-0.522 0.408,-0.51C0.44,-0.497 0.467,-0.479 0.49,-0.456C0.512,-0.433 0.529,-0.404 0.541,-0.371C0.553,-0.338 0.559,-0.3 0.559,-0.258C0.559,-0.216 0.553,-0.178 0.541,-0.145C0.529,-0.112 0.512,-0.083 0.49,-0.06C0.467,-0.037 0.44,-0.019 0.408,-0.007C0.376,0.006 0.34,0.012 0.3,0.012ZM0.3,-0.098C0.333,-0.098 0.359,-0.108 0.378,-0.129C0.397,-0.15 0.406,-0.179 0.406,-0.217L0.406,-0.299C0.406,-0.337 0.397,-0.366 0.378,-0.387C0.359,-0.408 0.333,-0.418 0.3,-0.418C0.267,-0.418 0.241,-0.408 0.222,-0.387C0.203,-0.366 0.194,-0.337 0.194,-0.299L0.194,-0.217C0.194,-0.179 0.203,-0.15 0.222,-0.129C0.241,-0.108 0.267,-0.098 0.3,-0.098Z" style="fill:#c33;fill-rule:nonzero;"/>
                    </g>
                    <g transform="matrix(10,0,0,10,726.206,111.178)">
                        <path d="M0.332,-0.582C0.299,-0.582 0.276,-0.589 0.263,-0.603C0.249,-0.616 0.243,-0.633 0.243,-0.652L0.243,-0.681C0.243,-0.701 0.249,-0.718 0.263,-0.731C0.276,-0.744 0.299,-0.751 0.332,-0.751C0.365,-0.751 0.389,-0.744 0.402,-0.731C0.415,-0.718 0.421,-0.701 0.421,-0.681L0.421,-0.652C0.421,-0.633 0.415,-0.616 0.402,-0.603C0.389,-0.589 0.365,-0.582 0.332,-0.582ZM0.094,-0.115L0.258,-0.115L0.258,-0.401L0.094,-0.401L0.094,-0.516L0.406,-0.516L0.406,-0.115L0.558,-0.115L0.558,-0L0.094,-0L0.094,-0.115Z" style="fill:#c33;fill-rule:nonzero;"/>
                    </g>
                    <g transform="matrix(10,0,0,10,732.206,111.178)">
                        <path d="M0.065,-0L0.065,-0.516L0.213,-0.516L0.213,-0.422L0.219,-0.422C0.225,-0.437 0.232,-0.45 0.241,-0.463C0.25,-0.476 0.26,-0.487 0.273,-0.497C0.285,-0.506 0.299,-0.514 0.316,-0.52C0.332,-0.525 0.35,-0.528 0.371,-0.528C0.396,-0.528 0.418,-0.524 0.439,-0.516C0.46,-0.507 0.477,-0.495 0.492,-0.478C0.507,-0.461 0.518,-0.441 0.527,-0.417C0.535,-0.393 0.539,-0.365 0.539,-0.334L0.539,-0L0.391,-0L0.391,-0.314C0.391,-0.381 0.362,-0.414 0.304,-0.414C0.293,-0.414 0.282,-0.413 0.271,-0.41C0.26,-0.407 0.25,-0.402 0.241,-0.396C0.232,-0.389 0.226,-0.381 0.221,-0.372C0.216,-0.363 0.213,-0.352 0.213,-0.339L0.213,-0L0.065,-0Z" style="fill:#c33;fill-rule:nonzero;"/>
                    </g>
                    <g transform="matrix(10,0,0,10,738.206,111.178)">
                        <path d="M0.34,-0C0.287,-0 0.247,-0.014 0.221,-0.042C0.195,-0.07 0.182,-0.106 0.182,-0.149L0.182,-0.401L0.042,-0.401L0.042,-0.516L0.133,-0.516C0.155,-0.516 0.171,-0.52 0.18,-0.529C0.189,-0.538 0.194,-0.554 0.194,-0.577L0.194,-0.698L0.33,-0.698L0.33,-0.516L0.531,-0.516L0.531,-0.401L0.33,-0.401L0.33,-0.115L0.531,-0.115L0.531,-0L0.34,-0Z" style="fill:#c33;fill-rule:nonzero;"/>
                    </g>
                    <g transform="matrix(10,0,0,10,744.206,111.178)">
                        <path d="M0.174,-0.311C0.174,-0.36 0.18,-0.407 0.191,-0.452C0.202,-0.497 0.217,-0.538 0.236,-0.577C0.255,-0.616 0.277,-0.651 0.302,-0.682C0.327,-0.713 0.354,-0.739 0.382,-0.76L0.53,-0.76C0.499,-0.739 0.469,-0.714 0.441,-0.686C0.413,-0.657 0.389,-0.626 0.368,-0.592C0.347,-0.558 0.33,-0.522 0.317,-0.483C0.304,-0.444 0.298,-0.404 0.298,-0.362L0.298,-0.26C0.298,-0.218 0.304,-0.178 0.317,-0.139C0.33,-0.1 0.347,-0.064 0.368,-0.03C0.389,0.004 0.413,0.035 0.441,0.064C0.469,0.092 0.499,0.117 0.53,0.138L0.382,0.138C0.354,0.117 0.327,0.091 0.302,0.06C0.277,0.029 0.255,-0.006 0.236,-0.045C0.217,-0.084 0.202,-0.126 0.191,-0.171C0.18,-0.216 0.174,-0.262 0.174,-0.311Z" style="fill:#c33;fill-rule:nonzero;"/>
                    </g>
                    <g transform="matrix(10,0,0,10,750.206,111.178)">
                        <path d="M0.388,-0.292L0.212,-0.292L0.212,-0L0.061,-0L0.061,-0.698L0.212,-0.698L0.212,-0.415L0.388,-0.415L0.388,-0.698L0.539,-0.698L0.539,-0L0.388,-0L0.388,-0.292Z" style="fill:#c33;fill-rule:nonzero;"/>
                    </g>
                    <g transform="matrix(5.83,0,0,5.83,756.206,114.508)">
                        <path d="M0.054,-0L0.011,-0.698L0.14,-0.698L0.16,-0.28L0.166,-0.148L0.175,-0.148L0.235,-0.546L0.37,-0.546L0.43,-0.148L0.439,-0.148L0.445,-0.276L0.465,-0.698L0.589,-0.698L0.546,-0L0.356,-0L0.305,-0.385L0.295,-0.385L0.244,-0L0.054,-0Z" style="fill:#c33;fill-rule:nonzero;"/>
                    </g>
                    <g transform="matrix(10,0,0,10,759.704,111.178)">
                        <path d="M0.426,-0.311C0.426,-0.262 0.421,-0.216 0.41,-0.171C0.399,-0.126 0.384,-0.084 0.365,-0.045C0.345,-0.006 0.323,0.029 0.298,0.06C0.273,0.091 0.246,0.117 0.218,0.138L0.07,0.138C0.101,0.117 0.13,0.092 0.159,0.064C0.187,0.035 0.212,0.004 0.233,-0.03C0.254,-0.064 0.27,-0.1 0.283,-0.139C0.296,-0.178 0.302,-0.218 0.302,-0.26L0.302,-0.362C0.302,-0.404 0.296,-0.444 0.283,-0.483C0.27,-0.522 0.254,-0.558 0.233,-0.592C0.212,-0.626 0.187,-0.657 0.159,-0.686C0.13,-0.714 0.101,-0.739 0.07,-0.76L0.218,-0.76C0.246,-0.739 0.273,-0.713 0.298,-0.682C0.323,-0.651 0.345,-0.616 0.365,-0.577C0.384,-0.538 0.399,-0.497 0.41,-0.452C0.421,-0.407 0.426,-0.36 0.426,-0.311Z" style="fill:#c33;fill-rule:nonzero;"/>
                    </g>
                </g>
            </g>
            <g>
                <circle cx="90.577" cy="14.177" r="10.36" style="fill:none;stroke:#000;stroke-width:1.88px;stroke-linejoin:round;stroke-miterlimit:1.5;"/>
                <circle cx="90.577" cy="14.177" r="10.36" style="fill:#fff;"/>
                <path id="_21" serif:id="2" d="M87.44,19.27L87.44,17.708L90.242,17.708L90.242,10.471L90.11,10.471L87.892,13.097L86.696,12.091L89.22,9.085L92.153,9.085L92.153,17.708L94.459,17.708L94.459,19.27L87.44,19.27Z" style="fill-rule:nonzero;"/>
            </g>
        </g>
    </g>
</svg>
