<?xml version="1.0" encoding="UTF-8" standalone="no"?>
<!DOCTYPE svg PUBLIC "-//W3C//DTD SVG 1.1//EN" "http://www.w3.org/Graphics/SVG/1.1/DTD/svg11.dtd">
<svg width="100%" height="100%" viewBox="0 0 730 173" version="1.1" xmlns="http://www.w3.org/2000/svg" xmlns:xlink="http://www.w3.org/1999/xlink" xml:space="preserve" xmlns:serif="http://www.serif.com/" style="fill-rule:evenodd;clip-rule:evenodd;stroke-linecap:round;stroke-linejoin:round;stroke-miterlimit:1.5;">
    <g id="Background">
        <rect x="-352.481" y="-517.274" width="2298.81" height="1851.74" style="fill:#fff;"/>
    </g>
    <g id="eth1-chain" serif:id="eth1 chain">
        <g id="eth1-block" serif:id="eth1 block">
            <path d="M259.936,84.266C259.936,79.62 256.164,75.848 251.518,75.848L234.681,75.848C230.035,75.848 226.263,79.62 226.263,84.266L226.263,101.602C226.263,106.248 230.035,110.02 234.681,110.02L251.518,110.02C256.164,110.02 259.936,106.248 259.936,101.602L259.936,84.266Z" style="fill:none;stroke:#000;stroke-width:3.54px;"/>
            <path d="M259.936,84.266C259.936,79.62 256.164,75.848 251.518,75.848L234.681,75.848C230.035,75.848 226.263,79.62 226.263,84.266L226.263,101.602C226.263,106.248 230.035,110.02 234.681,110.02L251.518,110.02C256.164,110.02 259.936,106.248 259.936,101.602L259.936,84.266Z" style="fill:#a6a6a6;"/>
            <g>
                <path d="M222.463,92.934L201.213,92.926" style="fill:none;stroke:#000;stroke-width:1.88px;stroke-dasharray:1.88,3.75,0,0;"/>
                <g>
                    <path d="M200.135,92.919L183.534,92.934" style="fill:none;"/>
                    <path d="M187.446,95.588L184.786,92.933L187.441,90.273" style="fill:none;stroke:#000;stroke-width:1.77px;stroke-linejoin:miter;stroke-miterlimit:10;"/>
                    <path d="M200.135,92.919C200.135,92.919 188.652,92.93 184.786,92.933" style="fill:none;stroke:#000;stroke-width:1.77px;"/>
                </g>
            </g>
        </g>
        <g id="eth1-block1" serif:id="eth1 block">
            <path d="M524.821,84.246C524.821,79.599 521.049,75.827 516.403,75.827L499.567,75.827C494.921,75.827 491.149,79.599 491.149,84.246L491.149,101.582C491.149,106.228 494.921,110 499.567,110L516.403,110C521.049,110 524.821,106.228 524.821,101.582L524.821,84.246Z" style="fill:none;stroke:#000;stroke-width:3.54px;"/>
            <path d="M524.821,84.246C524.821,79.599 521.049,75.827 516.403,75.827L499.567,75.827C494.921,75.827 491.149,79.599 491.149,84.246L491.149,101.582C491.149,106.228 494.921,110 499.567,110L516.403,110C521.049,110 524.821,106.228 524.821,101.582L524.821,84.246Z" style="fill:#a6a6a6;"/>
            <g>
                <path d="M487.348,92.914L466.098,92.906" style="fill:none;stroke:#000;stroke-width:1.88px;stroke-dasharray:1.88,3.75,0,0;"/>
                <g>
                    <path d="M465.02,92.903L448.419,92.914" style="fill:none;"/>
                    <path d="M452.331,95.569L449.672,92.913L452.328,90.254" style="fill:none;stroke:#000;stroke-width:1.77px;stroke-linejoin:miter;stroke-miterlimit:10;"/>
                    <path d="M465.02,92.903C465.02,92.903 453.537,92.91 449.672,92.913" style="fill:none;stroke:#000;stroke-width:1.77px;"/>
                </g>
            </g>
        </g>
        <g id="eth1-block2" serif:id="eth1 block">
            <g>
                <path d="M289.557,92.903L261.378,92.903" style="fill:none;"/>
                <path d="M265.288,95.561L262.631,92.903L265.288,90.246" style="fill:none;stroke:#000;stroke-width:1.77px;stroke-linejoin:miter;stroke-miterlimit:10;"/>
                <path d="M289.557,92.903L262.631,92.903" style="fill:none;stroke:#000;stroke-width:1.77px;"/>
            </g>
            <path d="M321.763,84.246C321.763,79.599 317.991,75.827 313.345,75.827L296.509,75.827C291.863,75.827 288.091,79.599 288.091,84.246L288.091,101.582C288.091,106.228 291.863,110 296.509,110L313.345,110C317.991,110 321.763,106.228 321.763,101.582L321.763,84.246Z" style="fill:none;stroke:#000;stroke-width:3.54px;"/>
            <path d="M321.763,84.246C321.763,79.599 317.991,75.827 313.345,75.827L296.509,75.827C291.863,75.827 288.091,79.599 288.091,84.246L288.091,101.582C288.091,106.228 291.863,110 296.509,110L313.345,110C317.991,110 321.763,106.228 321.763,101.582L321.763,84.246Z" style="fill:#a6a6a6;"/>
        </g>
        <g id="eth1-block3" serif:id="eth1 block">
            <g>
                <path d="M618.107,92.924L589.928,92.924" style="fill:none;"/>
                <path d="M593.839,95.581L591.181,92.924L593.839,90.266" style="fill:none;stroke:#000;stroke-width:1.77px;stroke-linejoin:miter;stroke-miterlimit:10;"/>
                <path d="M618.107,92.924L591.181,92.924" style="fill:none;stroke:#000;stroke-width:1.77px;"/>
            </g>
            <path d="M650.314,84.266C650.314,79.62 646.542,75.848 641.895,75.848L625.059,75.848C620.413,75.848 616.641,79.62 616.641,84.266L616.641,101.602C616.641,106.248 620.413,110.02 625.059,110.02L641.895,110.02C646.542,110.02 650.314,106.248 650.314,101.602L650.314,84.266Z" style="fill:none;stroke:#000;stroke-width:3.54px;"/>
            <path d="M650.314,84.266C650.314,79.62 646.542,75.848 641.895,75.848L625.059,75.848C620.413,75.848 616.641,79.62 616.641,84.266L616.641,101.602C616.641,106.248 620.413,110.02 625.059,110.02L641.895,110.02C646.542,110.02 650.314,106.248 650.314,101.602L650.314,84.266Z" style="fill:#ebebeb;"/>
        </g>
        <g id="eth1-block4" serif:id="eth1 block">
            <g>
                <path d="M679.357,92.924L651.178,92.924" style="fill:none;"/>
                <path d="M655.089,95.581L652.431,92.924L655.089,90.266" style="fill:none;stroke:#000;stroke-width:1.77px;stroke-linejoin:miter;stroke-miterlimit:10;"/>
                <path d="M679.357,92.924L652.431,92.924" style="fill:none;stroke:#000;stroke-width:1.77px;"/>
            </g>
            <path d="M711.564,84.266C711.564,79.62 707.792,75.848 703.145,75.848L686.309,75.848C681.663,75.848 677.891,79.62 677.891,84.266L677.891,101.602C677.891,106.248 681.663,110.02 686.309,110.02L703.145,110.02C707.792,110.02 711.564,106.248 711.564,101.602L711.564,84.266Z" style="fill:none;stroke:#000;stroke-width:3.54px;"/>
            <path d="M711.564,84.266C711.564,79.62 707.792,75.848 703.145,75.848L686.309,75.848C681.663,75.848 677.891,79.62 677.891,84.266L677.891,101.602C677.891,106.248 681.663,110.02 686.309,110.02L703.145,110.02C707.792,110.02 711.564,106.248 711.564,101.602L711.564,84.266Z" style="fill:#ebebeb;"/>
        </g>
        <g id="eth1-block5" serif:id="eth1 block">
            <g>
                <path d="M150.037,92.903L121.858,92.903" style="fill:none;"/>
                <path d="M125.768,95.561L123.111,92.903L125.768,90.246" style="fill:none;stroke:#000;stroke-width:1.77px;stroke-linejoin:miter;stroke-miterlimit:10;"/>
                <path d="M150.037,92.903L123.111,92.903" style="fill:none;stroke:#000;stroke-width:1.77px;"/>
            </g>
            <path d="M182.243,84.246C182.243,79.599 178.471,75.827 173.825,75.827L156.989,75.827C152.343,75.827 148.571,79.599 148.571,84.246L148.571,101.582C148.571,106.228 152.343,110 156.989,110L173.825,110C178.471,110 182.243,106.228 182.243,101.582L182.243,84.246Z" style="fill:none;stroke:#000;stroke-width:3.54px;"/>
            <path d="M182.243,84.246C182.243,79.599 178.471,75.827 173.825,75.827L156.989,75.827C152.343,75.827 148.571,79.599 148.571,84.246L148.571,101.582C148.571,106.228 152.343,110 156.989,110L173.825,110C178.471,110 182.243,106.228 182.243,101.582L182.243,84.246Z" style="fill:#a6a6a6;"/>
        </g>
        <g id="eth1-block6" serif:id="eth1 block">
            <g>
                <path d="M88.402,92.914L60.223,92.914" style="fill:none;"/>
                <path d="M64.133,95.571L61.475,92.914L64.133,90.256" style="fill:none;stroke:#000;stroke-width:1.77px;stroke-linejoin:miter;stroke-miterlimit:10;"/>
                <path d="M88.402,92.914L61.475,92.914" style="fill:none;stroke:#000;stroke-width:1.77px;"/>
            </g>
            <path d="M120.608,84.256C120.608,79.61 116.836,75.838 112.19,75.838L95.354,75.838C90.707,75.838 86.935,79.61 86.935,84.256L86.935,101.592C86.935,106.238 90.707,110.01 95.354,110.01L112.19,110.01C116.836,110.01 120.608,106.238 120.608,101.592L120.608,84.256Z" style="fill:none;stroke:#000;stroke-width:3.54px;"/>
            <path d="M120.608,84.256C120.608,79.61 116.836,75.838 112.19,75.838L95.354,75.838C90.707,75.838 86.935,79.61 86.935,84.256L86.935,101.592C86.935,106.238 90.707,110.01 95.354,110.01L112.19,110.01C116.836,110.01 120.608,106.238 120.608,101.592L120.608,84.256Z" style="fill:#a6a6a6;"/>
        </g>
        <g id="eth1-genesis" serif:id="eth1 genesis">
            <path d="M58.973,83.668C58.973,79.022 55.201,75.25 50.555,75.25L33.718,75.25C29.072,75.25 25.3,79.022 25.3,83.668L25.3,101.004C25.3,105.65 29.072,109.422 33.718,109.422L50.555,109.422C55.201,109.422 58.973,105.65 58.973,101.004L58.973,83.668Z" style="fill:none;stroke:#000;stroke-width:3.54px;"/>
            <path d="M58.973,83.668C58.973,79.022 55.201,75.25 50.555,75.25L33.718,75.25C29.072,75.25 25.3,79.022 25.3,83.668L25.3,101.004C25.3,105.65 29.072,109.422 33.718,109.422L50.555,109.422C55.201,109.422 58.973,105.65 58.973,101.004L58.973,83.668Z" style="fill:#a6a6a6;"/>
            <path d="M35.235,102.993C34.712,105.615 34.717,108.493 35.251,111.112C32.596,111.425 29.861,112.32 27.535,113.637C26.417,111.209 24.72,108.884 22.749,107.078C24.713,105.265 26.4,102.933 27.507,100.5C29.839,101.807 32.578,102.691 35.235,102.993Z" style="fill:none;stroke:#000;stroke-width:3.54px;"/>
            <path d="M35.235,102.993C34.712,105.615 34.717,108.493 35.251,111.112C32.596,111.425 29.861,112.32 27.535,113.637C26.417,111.209 24.72,108.884 22.749,107.078C24.713,105.265 26.4,102.933 27.507,100.5C29.839,101.807 32.578,102.691 35.235,102.993Z" style="fill:#cc9f33;"/>
        </g>
        <g id="eth1-fin-block" serif:id="eth1 fin block">
            <path d="M326.924,95.581L324.266,92.924L326.924,90.266" style="fill:none;stroke:#000;stroke-width:1.77px;stroke-linejoin:miter;stroke-miterlimit:10;"/>
            <path d="M350.976,92.924L324.266,92.924" style="fill:none;stroke:#000;stroke-width:1.77px;"/>
            <path d="M384.669,84.251C384.669,79.602 380.895,75.827 376.246,75.827L359.399,75.827C354.751,75.827 350.976,79.602 350.976,84.251L350.976,101.597C350.976,106.246 354.751,110.02 359.399,110.02L376.246,110.02C380.895,110.02 384.669,106.246 384.669,101.597L384.669,84.251Z" style="fill:none;stroke:#000;stroke-width:3.54px;"/>
            <path d="M384.669,84.251C384.669,79.602 380.895,75.827 376.246,75.827L359.399,75.827C354.751,75.827 350.976,79.602 350.976,84.251L350.976,101.597C350.976,106.246 354.751,110.02 359.399,110.02L376.246,110.02C380.895,110.02 384.669,106.246 384.669,101.597L384.669,84.251Z" style="fill:#a6a6a6;"/>
        </g>
        <g id="eth1-fin-block1" serif:id="eth1 fin block">
            <path d="M389.424,95.581L386.766,92.924L389.424,90.266" style="fill:none;stroke:#000;stroke-width:1.77px;stroke-linejoin:miter;stroke-miterlimit:10;"/>
            <path d="M413.476,92.924L386.766,92.924" style="fill:none;stroke:#000;stroke-width:1.77px;"/>
            <path d="M447.169,84.251C447.169,79.602 443.395,75.827 438.746,75.827L421.899,75.827C417.251,75.827 413.476,79.602 413.476,84.251L413.476,101.597C413.476,106.246 417.251,110.02 421.899,110.02L438.746,110.02C443.395,110.02 447.169,106.246 447.169,101.597L447.169,84.251Z" style="fill:none;stroke:#000;stroke-width:3.54px;"/>
            <path d="M447.169,84.251C447.169,79.602 443.395,75.827 438.746,75.827L421.899,75.827C417.251,75.827 413.476,79.602 413.476,84.251L413.476,101.597C413.476,106.246 417.251,110.02 421.899,110.02L438.746,110.02C443.395,110.02 447.169,106.246 447.169,101.597L447.169,84.251Z" style="fill:#a6a6a6;"/>
        </g>
        <g id="eth1-block7" serif:id="eth1 block">
            <g>
                <path d="M554.557,92.914L526.378,92.914" style="fill:none;"/>
                <path d="M530.288,95.571L527.631,92.914L530.288,90.256" style="fill:none;stroke:#000;stroke-width:1.77px;stroke-linejoin:miter;stroke-miterlimit:10;"/>
                <path d="M554.557,92.914L527.631,92.914" style="fill:none;stroke:#000;stroke-width:1.77px;"/>
            </g>
            <path d="M588.678,84.266C588.678,79.62 584.906,75.848 580.26,75.848L563.424,75.848C558.778,75.848 555.006,79.62 555.006,84.266L555.006,101.602C555.006,106.248 558.778,110.02 563.424,110.02L580.26,110.02C584.906,110.02 588.678,106.248 588.678,101.602L588.678,84.266Z" style="fill:none;stroke:#000;stroke-width:3.54px;"/>
            <path d="M588.678,84.266C588.678,79.62 584.906,75.848 580.26,75.848L563.424,75.848C558.778,75.848 555.006,79.62 555.006,84.266L555.006,101.602C555.006,106.248 558.778,110.02 563.424,110.02L580.26,110.02C584.906,110.02 588.678,106.248 588.678,101.602L588.678,84.266Z" style="fill:#a6a6a6;"/>
            <g id="eth1-fin-block2" serif:id="eth1 fin block">
                <path d="M565.298,104.339C564.775,106.961 564.781,109.839 565.315,112.458C562.66,112.771 559.924,113.666 557.598,114.983C556.48,112.555 554.784,110.23 552.812,108.424C554.776,106.611 556.463,104.279 557.571,101.846C559.903,103.153 562.642,104.037 565.298,104.339Z" style="fill:none;stroke:#000;stroke-width:3.54px;"/>
                <path d="M565.298,104.339C564.775,106.961 564.781,109.839 565.315,112.458C562.66,112.771 559.924,113.666 557.598,114.983C556.48,112.555 554.784,110.23 552.812,108.424C554.776,106.611 556.463,104.279 557.571,101.846C559.903,103.153 562.642,104.037 565.298,104.339Z" style="fill:#6ba659;"/>
            </g>
        </g>
        <g transform="matrix(1.77165,0,0,1.77165,-758.455,-81.3299)">
            <g transform="matrix(12,0,0,12,447.735,126.191)">
                <path d="M0.416,-0.307L0.184,-0.307L0.184,-0L0.072,-0L0.072,-0.698L0.184,-0.698L0.184,-0.401L0.416,-0.401L0.416,-0.698L0.528,-0.698L0.528,-0L0.416,-0L0.416,-0.307Z" style="fill-rule:nonzero;"/>
            </g>
            <g transform="matrix(6.996,0,0,6.996,454.935,130.187)">
                <path d="M0.43,-0.096L0.423,-0.096C0.417,-0.082 0.41,-0.068 0.402,-0.056C0.393,-0.043 0.383,-0.031 0.371,-0.021C0.358,-0.011 0.343,-0.003 0.326,0.003C0.309,0.009 0.289,0.012 0.266,0.012C0.193,0.012 0.139,-0.019 0.102,-0.081C0.065,-0.143 0.047,-0.231 0.047,-0.344C0.047,-0.463 0.068,-0.553 0.11,-0.616C0.152,-0.679 0.216,-0.71 0.303,-0.71C0.337,-0.71 0.367,-0.705 0.393,-0.696C0.418,-0.687 0.44,-0.674 0.458,-0.659C0.476,-0.643 0.491,-0.624 0.503,-0.604C0.515,-0.583 0.525,-0.56 0.532,-0.537L0.431,-0.503C0.426,-0.518 0.42,-0.533 0.413,-0.547C0.406,-0.56 0.398,-0.572 0.389,-0.583C0.379,-0.594 0.367,-0.602 0.354,-0.608C0.34,-0.614 0.323,-0.617 0.304,-0.617C0.255,-0.617 0.22,-0.598 0.199,-0.561C0.177,-0.523 0.166,-0.472 0.166,-0.408L0.166,-0.297C0.166,-0.265 0.168,-0.236 0.173,-0.209C0.178,-0.182 0.186,-0.16 0.197,-0.141C0.208,-0.122 0.222,-0.107 0.24,-0.096C0.257,-0.085 0.279,-0.08 0.304,-0.08C0.345,-0.08 0.376,-0.092 0.398,-0.117C0.419,-0.141 0.43,-0.172 0.43,-0.21L0.43,-0.273L0.295,-0.273L0.295,-0.357L0.532,-0.357L0.532,-0L0.43,-0L0.43,-0.096Z" style="fill-rule:nonzero;"/>
            </g>
        </g>
        <g transform="matrix(1.77165,0,0,1.77165,-698.693,-59.0703)">
            <g transform="matrix(12,0,0,12,447.735,126.191)">
                <path d="M0.083,-0.698L0.324,-0.698C0.387,-0.698 0.436,-0.682 0.472,-0.649C0.507,-0.616 0.524,-0.572 0.524,-0.515C0.524,-0.474 0.514,-0.442 0.494,-0.418C0.474,-0.394 0.447,-0.377 0.413,-0.367L0.413,-0.362C0.454,-0.353 0.486,-0.335 0.511,-0.309C0.536,-0.282 0.548,-0.245 0.548,-0.197C0.548,-0.168 0.543,-0.142 0.534,-0.118C0.525,-0.094 0.511,-0.073 0.494,-0.056C0.477,-0.038 0.456,-0.024 0.432,-0.015C0.407,-0.005 0.38,-0 0.351,-0L0.083,-0L0.083,-0.698ZM0.317,-0.086C0.354,-0.086 0.383,-0.094 0.403,-0.109C0.423,-0.124 0.433,-0.149 0.433,-0.183L0.433,-0.219C0.433,-0.253 0.423,-0.278 0.403,-0.293C0.383,-0.308 0.354,-0.316 0.317,-0.316L0.193,-0.316L0.193,-0.086L0.317,-0.086ZM0.301,-0.398C0.336,-0.398 0.363,-0.405 0.382,-0.419C0.4,-0.432 0.409,-0.455 0.409,-0.487L0.409,-0.523C0.409,-0.555 0.4,-0.578 0.382,-0.592C0.363,-0.605 0.336,-0.612 0.301,-0.612L0.193,-0.612L0.193,-0.398L0.301,-0.398Z" style="fill-rule:nonzero;"/>
            </g>
            <g transform="matrix(6.996,0,0,6.996,454.935,130.187)">
                <path d="M0.43,-0.096L0.423,-0.096C0.417,-0.082 0.41,-0.068 0.402,-0.056C0.393,-0.043 0.383,-0.031 0.371,-0.021C0.358,-0.011 0.343,-0.003 0.326,0.003C0.309,0.009 0.289,0.012 0.266,0.012C0.193,0.012 0.139,-0.019 0.102,-0.081C0.065,-0.143 0.047,-0.231 0.047,-0.344C0.047,-0.463 0.068,-0.553 0.11,-0.616C0.152,-0.679 0.216,-0.71 0.303,-0.71C0.337,-0.71 0.367,-0.705 0.393,-0.696C0.418,-0.687 0.44,-0.674 0.458,-0.659C0.476,-0.643 0.491,-0.624 0.503,-0.604C0.515,-0.583 0.525,-0.56 0.532,-0.537L0.431,-0.503C0.426,-0.518 0.42,-0.533 0.413,-0.547C0.406,-0.56 0.398,-0.572 0.389,-0.583C0.379,-0.594 0.367,-0.602 0.354,-0.608C0.34,-0.614 0.323,-0.617 0.304,-0.617C0.255,-0.617 0.22,-0.598 0.199,-0.561C0.177,-0.523 0.166,-0.472 0.166,-0.408L0.166,-0.297C0.166,-0.265 0.168,-0.236 0.173,-0.209C0.178,-0.182 0.186,-0.16 0.197,-0.141C0.208,-0.122 0.222,-0.107 0.24,-0.096C0.257,-0.085 0.279,-0.08 0.304,-0.08C0.345,-0.08 0.376,-0.092 0.398,-0.117C0.419,-0.141 0.43,-0.172 0.43,-0.21L0.43,-0.273L0.295,-0.273L0.295,-0.357L0.532,-0.357L0.532,-0L0.43,-0L0.43,-0.096Z" style="fill-rule:nonzero;"/>
            </g>
            <g transform="matrix(6.996,0,0,6.996,459.133,130.187)">
                <path d="M0.251,-0.062L0.251,-0.261L0.062,-0.261L0.062,-0.35L0.251,-0.35L0.251,-0.549L0.349,-0.549L0.349,-0.35L0.538,-0.35L0.538,-0.261L0.349,-0.261L0.349,-0.062L0.251,-0.062Z" style="fill-rule:nonzero;"/>
            </g>
            <g transform="matrix(6.996,0,0,6.996,463.33,130.187)">
                <path d="M0.088,-0L0.088,-0.093L0.284,-0.093L0.284,-0.616L0.276,-0.616L0.114,-0.443L0.045,-0.505L0.223,-0.698L0.396,-0.698L0.396,-0.093L0.565,-0.093L0.565,-0L0.088,-0Z" style="fill-rule:nonzero;"/>
            </g>
        </g>
        <g transform="matrix(1.77165,0,0,1.77165,-432.205,-81.106)">
            <g transform="matrix(12,0,0,12,447.735,126.191)">
                <path d="M0.416,-0.307L0.184,-0.307L0.184,-0L0.072,-0L0.072,-0.698L0.184,-0.698L0.184,-0.401L0.416,-0.401L0.416,-0.698L0.528,-0.698L0.528,-0L0.416,-0L0.416,-0.307Z" style="fill-rule:nonzero;"/>
            </g>
            <g transform="matrix(6.996,0,0,6.996,454.935,130.187)">
                <path d="M0.086,-0L0.086,-0.698L0.535,-0.698L0.535,-0.604L0.198,-0.604L0.198,-0.401L0.504,-0.401L0.504,-0.307L0.198,-0.307L0.198,-0L0.086,-0Z" style="fill-rule:nonzero;"/>
            </g>
        </g>
        <g transform="matrix(1.77165,0,0,1.77165,-237.205,-81.2573)">
            <g transform="matrix(12,0,0,12,447.735,126.191)">
                <path d="M0.083,-0.698L0.324,-0.698C0.387,-0.698 0.436,-0.682 0.472,-0.649C0.507,-0.616 0.524,-0.572 0.524,-0.515C0.524,-0.474 0.514,-0.442 0.494,-0.418C0.474,-0.394 0.447,-0.377 0.413,-0.367L0.413,-0.362C0.454,-0.353 0.486,-0.335 0.511,-0.309C0.536,-0.282 0.548,-0.245 0.548,-0.197C0.548,-0.168 0.543,-0.142 0.534,-0.118C0.525,-0.094 0.511,-0.073 0.494,-0.056C0.477,-0.038 0.456,-0.024 0.432,-0.015C0.407,-0.005 0.38,-0 0.351,-0L0.083,-0L0.083,-0.698ZM0.317,-0.086C0.354,-0.086 0.383,-0.094 0.403,-0.109C0.423,-0.124 0.433,-0.149 0.433,-0.183L0.433,-0.219C0.433,-0.253 0.423,-0.278 0.403,-0.293C0.383,-0.308 0.354,-0.316 0.317,-0.316L0.193,-0.316L0.193,-0.086L0.317,-0.086ZM0.301,-0.398C0.336,-0.398 0.363,-0.405 0.382,-0.419C0.4,-0.432 0.409,-0.455 0.409,-0.487L0.409,-0.523C0.409,-0.555 0.4,-0.578 0.382,-0.592C0.363,-0.605 0.336,-0.612 0.301,-0.612L0.193,-0.612L0.193,-0.398L0.301,-0.398Z" style="fill-rule:nonzero;"/>
            </g>
            <g transform="matrix(6.996,0,0,6.996,454.935,130.187)">
                <path d="M0.086,-0L0.086,-0.698L0.535,-0.698L0.535,-0.604L0.198,-0.604L0.198,-0.401L0.504,-0.401L0.504,-0.307L0.198,-0.307L0.198,-0L0.086,-0Z" style="fill-rule:nonzero;"/>
            </g>
            <g transform="matrix(6.996,0,0,6.996,459.133,130.187)">
                <path d="M0.251,-0.062L0.251,-0.261L0.062,-0.261L0.062,-0.35L0.251,-0.35L0.251,-0.549L0.349,-0.549L0.349,-0.35L0.538,-0.35L0.538,-0.261L0.349,-0.261L0.349,-0.062L0.251,-0.062Z" style="fill-rule:nonzero;"/>
            </g>
            <g transform="matrix(6.996,0,0,6.996,463.33,130.187)">
                <path d="M0.331,-0C0.286,-0 0.252,-0.012 0.231,-0.037C0.21,-0.061 0.199,-0.092 0.199,-0.131L0.199,-0.428L0.04,-0.428L0.04,-0.516L0.153,-0.516C0.172,-0.516 0.186,-0.52 0.194,-0.528C0.202,-0.535 0.206,-0.549 0.206,-0.569L0.206,-0.698L0.308,-0.698L0.308,-0.516L0.528,-0.516L0.528,-0.428L0.308,-0.428L0.308,-0.088L0.528,-0.088L0.528,-0L0.331,-0Z" style="fill-rule:nonzero;"/>
            </g>
        </g>
        <g>
            <g>
                <path d="M363.952,42.96L360.396,44.651L358.704,41.096" style="fill:none;stroke:#c33;stroke-width:1.88px;stroke-linejoin:miter;stroke-miterlimit:10;"/>
                <path d="M305.999,8.401C297.253,45.391 379.318,-9.934 360.396,44.651" style="fill:none;stroke:#c33;stroke-width:1.88px;stroke-dasharray:1.88,1.88;"/>
                <g transform="matrix(1.25,0,0,1.25,-521.194,-76.8791)">
                    <g transform="matrix(10,0,0,10,684.206,111.178)">
                        <path d="M0.071,-0.115L0.223,-0.115L0.223,-0.401L0.061,-0.401L0.061,-0.516L0.223,-0.516L0.223,-0.591C0.223,-0.635 0.236,-0.671 0.262,-0.699C0.287,-0.726 0.327,-0.74 0.381,-0.74L0.556,-0.74L0.556,-0.625L0.371,-0.625L0.371,-0.516L0.556,-0.516L0.556,-0.401L0.371,-0.401L0.371,-0.115L0.533,-0.115L0.533,-0L0.071,-0L0.071,-0.115Z" style="fill:#c33;fill-rule:nonzero;"/>
                    </g>
                    <g transform="matrix(10,0,0,10,690.206,111.178)">
                        <path d="M0.332,-0.582C0.299,-0.582 0.276,-0.589 0.263,-0.603C0.249,-0.616 0.243,-0.633 0.243,-0.652L0.243,-0.681C0.243,-0.701 0.249,-0.718 0.263,-0.731C0.276,-0.744 0.299,-0.751 0.332,-0.751C0.365,-0.751 0.389,-0.744 0.402,-0.731C0.415,-0.718 0.421,-0.701 0.421,-0.681L0.421,-0.652C0.421,-0.633 0.415,-0.616 0.402,-0.603C0.389,-0.589 0.365,-0.582 0.332,-0.582ZM0.094,-0.115L0.258,-0.115L0.258,-0.401L0.094,-0.401L0.094,-0.516L0.406,-0.516L0.406,-0.115L0.558,-0.115L0.558,-0L0.094,-0L0.094,-0.115Z" style="fill:#c33;fill-rule:nonzero;"/>
                    </g>
                    <g transform="matrix(10,0,0,10,696.206,111.178)">
                        <path d="M0.065,-0L0.065,-0.516L0.213,-0.516L0.213,-0.422L0.219,-0.422C0.225,-0.437 0.232,-0.45 0.241,-0.463C0.25,-0.476 0.26,-0.487 0.273,-0.497C0.285,-0.506 0.299,-0.514 0.316,-0.52C0.332,-0.525 0.35,-0.528 0.371,-0.528C0.396,-0.528 0.418,-0.524 0.439,-0.516C0.46,-0.507 0.477,-0.495 0.492,-0.478C0.507,-0.461 0.518,-0.441 0.527,-0.417C0.535,-0.393 0.539,-0.365 0.539,-0.334L0.539,-0L0.391,-0L0.391,-0.314C0.391,-0.381 0.362,-0.414 0.304,-0.414C0.293,-0.414 0.282,-0.413 0.271,-0.41C0.26,-0.407 0.25,-0.402 0.241,-0.396C0.232,-0.389 0.226,-0.381 0.221,-0.372C0.216,-0.363 0.213,-0.352 0.213,-0.339L0.213,-0L0.065,-0Z" style="fill:#c33;fill-rule:nonzero;"/>
                    </g>
                    <g transform="matrix(10,0,0,10,702.206,111.178)">
                        <path d="M0.487,-0C0.456,-0 0.432,-0.008 0.413,-0.024C0.394,-0.039 0.383,-0.062 0.38,-0.091L0.375,-0.091C0.366,-0.057 0.347,-0.031 0.32,-0.014C0.292,0.003 0.258,0.012 0.218,0.012C0.168,0.012 0.128,-0.002 0.098,-0.029C0.067,-0.056 0.052,-0.093 0.052,-0.142C0.052,-0.196 0.072,-0.236 0.111,-0.262C0.15,-0.288 0.208,-0.301 0.284,-0.301L0.367,-0.301L0.367,-0.327C0.367,-0.358 0.36,-0.381 0.346,-0.397C0.331,-0.412 0.307,-0.42 0.273,-0.42C0.242,-0.42 0.216,-0.414 0.197,-0.402C0.178,-0.39 0.161,-0.374 0.147,-0.355L0.066,-0.427C0.083,-0.456 0.111,-0.481 0.148,-0.5C0.185,-0.519 0.232,-0.528 0.29,-0.528C0.361,-0.528 0.416,-0.512 0.456,-0.48C0.495,-0.447 0.515,-0.398 0.515,-0.333L0.515,-0.107L0.572,-0.107L0.572,-0L0.487,-0ZM0.274,-0.085C0.3,-0.085 0.322,-0.091 0.34,-0.104C0.358,-0.117 0.367,-0.135 0.367,-0.159L0.367,-0.221L0.288,-0.221C0.227,-0.221 0.197,-0.201 0.197,-0.16L0.197,-0.14C0.197,-0.122 0.204,-0.108 0.218,-0.099C0.232,-0.09 0.251,-0.085 0.274,-0.085Z" style="fill:#c33;fill-rule:nonzero;"/>
                    </g>
                    <g transform="matrix(10,0,0,10,708.206,111.178)">
                        <path d="M0.068,-0.115L0.226,-0.115L0.226,-0.625L0.068,-0.625L0.068,-0.74L0.374,-0.74L0.374,-0.115L0.532,-0.115L0.532,-0L0.068,-0L0.068,-0.115Z" style="fill:#c33;fill-rule:nonzero;"/>
                    </g>
                    <g transform="matrix(10,0,0,10,714.206,111.178)">
                        <path d="M0.174,-0.311C0.174,-0.36 0.18,-0.407 0.191,-0.452C0.202,-0.497 0.217,-0.538 0.236,-0.577C0.255,-0.616 0.277,-0.651 0.302,-0.682C0.327,-0.713 0.354,-0.739 0.382,-0.76L0.53,-0.76C0.499,-0.739 0.469,-0.714 0.441,-0.686C0.413,-0.657 0.389,-0.626 0.368,-0.592C0.347,-0.558 0.33,-0.522 0.317,-0.483C0.304,-0.444 0.298,-0.404 0.298,-0.362L0.298,-0.26C0.298,-0.218 0.304,-0.178 0.317,-0.139C0.33,-0.1 0.347,-0.064 0.368,-0.03C0.389,0.004 0.413,0.035 0.441,0.064C0.469,0.092 0.499,0.117 0.53,0.138L0.382,0.138C0.354,0.117 0.327,0.091 0.302,0.06C0.277,0.029 0.255,-0.006 0.236,-0.045C0.217,-0.084 0.202,-0.126 0.191,-0.171C0.18,-0.216 0.174,-0.262 0.174,-0.311Z" style="fill:#c33;fill-rule:nonzero;"/>
                    </g>
                    <g transform="matrix(10,0,0,10,720.206,111.178)">
                        <path d="M0.077,-0.698L0.322,-0.698C0.391,-0.698 0.443,-0.681 0.48,-0.648C0.516,-0.615 0.534,-0.569 0.534,-0.512C0.534,-0.472 0.524,-0.44 0.505,-0.417C0.485,-0.393 0.457,-0.376 0.42,-0.365L0.42,-0.359C0.463,-0.348 0.497,-0.33 0.521,-0.303C0.544,-0.276 0.556,-0.239 0.556,-0.192C0.556,-0.133 0.538,-0.087 0.501,-0.052C0.464,-0.017 0.412,-0 0.345,-0L0.077,-0L0.077,-0.698ZM0.299,-0.105C0.335,-0.105 0.361,-0.111 0.378,-0.123C0.395,-0.135 0.403,-0.157 0.403,-0.189L0.403,-0.218C0.403,-0.25 0.395,-0.272 0.378,-0.284C0.361,-0.296 0.335,-0.302 0.299,-0.302L0.223,-0.302L0.223,-0.105L0.299,-0.105ZM0.28,-0.402C0.315,-0.402 0.341,-0.408 0.357,-0.42C0.373,-0.431 0.381,-0.452 0.381,-0.483L0.381,-0.513C0.381,-0.544 0.373,-0.565 0.357,-0.576C0.341,-0.587 0.315,-0.593 0.28,-0.593L0.223,-0.593L0.223,-0.402L0.28,-0.402Z" style="fill:#c33;fill-rule:nonzero;"/>
                    </g>
                    <g transform="matrix(5.83,0,0,5.83,726.206,114.508)">
                        <path d="M0.08,-0L0.08,-0.698L0.543,-0.698L0.543,-0.575L0.23,-0.575L0.23,-0.415L0.51,-0.415L0.51,-0.292L0.23,-0.292L0.23,-0L0.08,-0Z" style="fill:#c33;fill-rule:nonzero;"/>
                    </g>
                    <g transform="matrix(10,0,0,10,729.704,111.178)">
                        <path d="M0.426,-0.311C0.426,-0.262 0.421,-0.216 0.41,-0.171C0.399,-0.126 0.384,-0.084 0.365,-0.045C0.345,-0.006 0.323,0.029 0.298,0.06C0.273,0.091 0.246,0.117 0.218,0.138L0.07,0.138C0.101,0.117 0.13,0.092 0.159,0.064C0.187,0.035 0.212,0.004 0.233,-0.03C0.254,-0.064 0.27,-0.1 0.283,-0.139C0.296,-0.178 0.302,-0.218 0.302,-0.26L0.302,-0.362C0.302,-0.404 0.296,-0.444 0.283,-0.483C0.27,-0.522 0.254,-0.558 0.233,-0.592C0.212,-0.626 0.187,-0.657 0.159,-0.686C0.13,-0.714 0.101,-0.739 0.07,-0.76L0.218,-0.76C0.246,-0.739 0.273,-0.713 0.298,-0.682C0.323,-0.651 0.345,-0.616 0.365,-0.577C0.384,-0.538 0.399,-0.497 0.41,-0.452C0.421,-0.407 0.426,-0.36 0.426,-0.311Z" style="fill:#c33;fill-rule:nonzero;"/>
                    </g>
                </g>
            </g>
            <g>
                <circle cx="327.447" cy="20.655" r="10.36" style="fill:none;stroke:#000;stroke-width:1.88px;"/>
                <circle cx="327.447" cy="20.655" r="10.36" style="fill:#fff;"/>
                <path id="_2" serif:id="2" d="M324.309,25.748L324.309,24.187L327.111,24.187L327.111,16.949L326.98,16.949L324.762,19.576L323.565,18.569L326.09,15.563L329.023,15.563L329.023,24.187L331.328,24.187L331.328,25.748L324.309,25.748Z" style="fill-rule:nonzero;"/>
            </g>
        </g>
        <g>
            <g>
                <path d="M447.156,42.951L443.6,44.643L441.908,41.087" style="fill:none;stroke:#c33;stroke-width:1.88px;stroke-linejoin:miter;stroke-miterlimit:10;"/>
                <path d="M389.202,8.392C380.456,45.382 462.522,-9.943 443.6,44.643" style="fill:none;stroke:#c33;stroke-width:1.88px;stroke-dasharray:1.88,1.88;"/>
                <g transform="matrix(1.25,0,0,1.25,-437.99,-76.8879)">
                    <g transform="matrix(10,0,0,10,684.206,111.178)">
                        <path d="M0.071,-0.115L0.223,-0.115L0.223,-0.401L0.061,-0.401L0.061,-0.516L0.223,-0.516L0.223,-0.591C0.223,-0.635 0.236,-0.671 0.262,-0.699C0.287,-0.726 0.327,-0.74 0.381,-0.74L0.556,-0.74L0.556,-0.625L0.371,-0.625L0.371,-0.516L0.556,-0.516L0.556,-0.401L0.371,-0.401L0.371,-0.115L0.533,-0.115L0.533,-0L0.071,-0L0.071,-0.115Z" style="fill:#c33;fill-rule:nonzero;"/>
                    </g>
                    <g transform="matrix(10,0,0,10,690.206,111.178)">
                        <path d="M0.332,-0.582C0.299,-0.582 0.276,-0.589 0.263,-0.603C0.249,-0.616 0.243,-0.633 0.243,-0.652L0.243,-0.681C0.243,-0.701 0.249,-0.718 0.263,-0.731C0.276,-0.744 0.299,-0.751 0.332,-0.751C0.365,-0.751 0.389,-0.744 0.402,-0.731C0.415,-0.718 0.421,-0.701 0.421,-0.681L0.421,-0.652C0.421,-0.633 0.415,-0.616 0.402,-0.603C0.389,-0.589 0.365,-0.582 0.332,-0.582ZM0.094,-0.115L0.258,-0.115L0.258,-0.401L0.094,-0.401L0.094,-0.516L0.406,-0.516L0.406,-0.115L0.558,-0.115L0.558,-0L0.094,-0L0.094,-0.115Z" style="fill:#c33;fill-rule:nonzero;"/>
                    </g>
                    <g transform="matrix(10,0,0,10,696.206,111.178)">
                        <path d="M0.065,-0L0.065,-0.516L0.213,-0.516L0.213,-0.422L0.219,-0.422C0.225,-0.437 0.232,-0.45 0.241,-0.463C0.25,-0.476 0.26,-0.487 0.273,-0.497C0.285,-0.506 0.299,-0.514 0.316,-0.52C0.332,-0.525 0.35,-0.528 0.371,-0.528C0.396,-0.528 0.418,-0.524 0.439,-0.516C0.46,-0.507 0.477,-0.495 0.492,-0.478C0.507,-0.461 0.518,-0.441 0.527,-0.417C0.535,-0.393 0.539,-0.365 0.539,-0.334L0.539,-0L0.391,-0L0.391,-0.314C0.391,-0.381 0.362,-0.414 0.304,-0.414C0.293,-0.414 0.282,-0.413 0.271,-0.41C0.26,-0.407 0.25,-0.402 0.241,-0.396C0.232,-0.389 0.226,-0.381 0.221,-0.372C0.216,-0.363 0.213,-0.352 0.213,-0.339L0.213,-0L0.065,-0Z" style="fill:#c33;fill-rule:nonzero;"/>
                    </g>
                    <g transform="matrix(10,0,0,10,702.206,111.178)">
                        <path d="M0.487,-0C0.456,-0 0.432,-0.008 0.413,-0.024C0.394,-0.039 0.383,-0.062 0.38,-0.091L0.375,-0.091C0.366,-0.057 0.347,-0.031 0.32,-0.014C0.292,0.003 0.258,0.012 0.218,0.012C0.168,0.012 0.128,-0.002 0.098,-0.029C0.067,-0.056 0.052,-0.093 0.052,-0.142C0.052,-0.196 0.072,-0.236 0.111,-0.262C0.15,-0.288 0.208,-0.301 0.284,-0.301L0.367,-0.301L0.367,-0.327C0.367,-0.358 0.36,-0.381 0.346,-0.397C0.331,-0.412 0.307,-0.42 0.273,-0.42C0.242,-0.42 0.216,-0.414 0.197,-0.402C0.178,-0.39 0.161,-0.374 0.147,-0.355L0.066,-0.427C0.083,-0.456 0.111,-0.481 0.148,-0.5C0.185,-0.519 0.232,-0.528 0.29,-0.528C0.361,-0.528 0.416,-0.512 0.456,-0.48C0.495,-0.447 0.515,-0.398 0.515,-0.333L0.515,-0.107L0.572,-0.107L0.572,-0L0.487,-0ZM0.274,-0.085C0.3,-0.085 0.322,-0.091 0.34,-0.104C0.358,-0.117 0.367,-0.135 0.367,-0.159L0.367,-0.221L0.288,-0.221C0.227,-0.221 0.197,-0.201 0.197,-0.16L0.197,-0.14C0.197,-0.122 0.204,-0.108 0.218,-0.099C0.232,-0.09 0.251,-0.085 0.274,-0.085Z" style="fill:#c33;fill-rule:nonzero;"/>
                    </g>
                    <g transform="matrix(10,0,0,10,708.206,111.178)">
                        <path d="M0.068,-0.115L0.226,-0.115L0.226,-0.625L0.068,-0.625L0.068,-0.74L0.374,-0.74L0.374,-0.115L0.532,-0.115L0.532,-0L0.068,-0L0.068,-0.115Z" style="fill:#c33;fill-rule:nonzero;"/>
                    </g>
                    <g transform="matrix(10,0,0,10,714.206,111.178)">
                        <path d="M0.174,-0.311C0.174,-0.36 0.18,-0.407 0.191,-0.452C0.202,-0.497 0.217,-0.538 0.236,-0.577C0.255,-0.616 0.277,-0.651 0.302,-0.682C0.327,-0.713 0.354,-0.739 0.382,-0.76L0.53,-0.76C0.499,-0.739 0.469,-0.714 0.441,-0.686C0.413,-0.657 0.389,-0.626 0.368,-0.592C0.347,-0.558 0.33,-0.522 0.317,-0.483C0.304,-0.444 0.298,-0.404 0.298,-0.362L0.298,-0.26C0.298,-0.218 0.304,-0.178 0.317,-0.139C0.33,-0.1 0.347,-0.064 0.368,-0.03C0.389,0.004 0.413,0.035 0.441,0.064C0.469,0.092 0.499,0.117 0.53,0.138L0.382,0.138C0.354,0.117 0.327,0.091 0.302,0.06C0.277,0.029 0.255,-0.006 0.236,-0.045C0.217,-0.084 0.202,-0.126 0.191,-0.171C0.18,-0.216 0.174,-0.262 0.174,-0.311Z" style="fill:#c33;fill-rule:nonzero;"/>
                    </g>
                    <g transform="matrix(10,0,0,10,720.206,111.178)">
                        <path d="M0.077,-0.698L0.322,-0.698C0.391,-0.698 0.443,-0.681 0.48,-0.648C0.516,-0.615 0.534,-0.569 0.534,-0.512C0.534,-0.472 0.524,-0.44 0.505,-0.417C0.485,-0.393 0.457,-0.376 0.42,-0.365L0.42,-0.359C0.463,-0.348 0.497,-0.33 0.521,-0.303C0.544,-0.276 0.556,-0.239 0.556,-0.192C0.556,-0.133 0.538,-0.087 0.501,-0.052C0.464,-0.017 0.412,-0 0.345,-0L0.077,-0L0.077,-0.698ZM0.299,-0.105C0.335,-0.105 0.361,-0.111 0.378,-0.123C0.395,-0.135 0.403,-0.157 0.403,-0.189L0.403,-0.218C0.403,-0.25 0.395,-0.272 0.378,-0.284C0.361,-0.296 0.335,-0.302 0.299,-0.302L0.223,-0.302L0.223,-0.105L0.299,-0.105ZM0.28,-0.402C0.315,-0.402 0.341,-0.408 0.357,-0.42C0.373,-0.431 0.381,-0.452 0.381,-0.483L0.381,-0.513C0.381,-0.544 0.373,-0.565 0.357,-0.576C0.341,-0.587 0.315,-0.593 0.28,-0.593L0.223,-0.593L0.223,-0.402L0.28,-0.402Z" style="fill:#c33;fill-rule:nonzero;"/>
                    </g>
                    <g transform="matrix(5.83,0,0,5.83,726.206,114.508)">
                        <path d="M0.08,-0L0.08,-0.698L0.543,-0.698L0.543,-0.575L0.23,-0.575L0.23,-0.415L0.51,-0.415L0.51,-0.292L0.23,-0.292L0.23,-0L0.08,-0Z" style="fill:#c33;fill-rule:nonzero;"/>
                    </g>
                    <g transform="matrix(5.83,0,0,5.83,729.704,114.508)">
                        <path d="M0.236,-0.062L0.236,-0.246L0.062,-0.246L0.062,-0.364L0.236,-0.364L0.236,-0.548L0.364,-0.548L0.364,-0.364L0.538,-0.364L0.538,-0.246L0.364,-0.246L0.364,-0.062L0.236,-0.062Z" style="fill:#c33;fill-rule:nonzero;"/>
                    </g>
                    <g transform="matrix(5.83,0,0,5.83,733.202,114.508)">
                        <path d="M0.094,-0L0.094,-0.121L0.282,-0.121L0.282,-0.589L0.273,-0.589L0.131,-0.403L0.035,-0.478L0.202,-0.698L0.432,-0.698L0.432,-0.121L0.58,-0.121L0.58,-0L0.094,-0Z" style="fill:#c33;fill-rule:nonzero;"/>
                    </g>
                    <g transform="matrix(10,0,0,10,736.7,111.178)">
                        <path d="M0.426,-0.311C0.426,-0.262 0.421,-0.216 0.41,-0.171C0.399,-0.126 0.384,-0.084 0.365,-0.045C0.345,-0.006 0.323,0.029 0.298,0.06C0.273,0.091 0.246,0.117 0.218,0.138L0.07,0.138C0.101,0.117 0.13,0.092 0.159,0.064C0.187,0.035 0.212,0.004 0.233,-0.03C0.254,-0.064 0.27,-0.1 0.283,-0.139C0.296,-0.178 0.302,-0.218 0.302,-0.26L0.302,-0.362C0.302,-0.404 0.296,-0.444 0.283,-0.483C0.27,-0.522 0.254,-0.558 0.233,-0.592C0.212,-0.626 0.187,-0.657 0.159,-0.686C0.13,-0.714 0.101,-0.739 0.07,-0.76L0.218,-0.76C0.246,-0.739 0.273,-0.713 0.298,-0.682C0.323,-0.651 0.345,-0.616 0.365,-0.577C0.384,-0.538 0.399,-0.497 0.41,-0.452C0.421,-0.407 0.426,-0.36 0.426,-0.311Z" style="fill:#c33;fill-rule:nonzero;"/>
                    </g>
                </g>
            </g>
        </g>
        <g>
            <g>
                <path d="M536.54,42.951L532.984,44.643L531.293,41.087" style="fill:none;stroke:#c33;stroke-width:1.88px;stroke-linejoin:miter;stroke-miterlimit:10;"/>
                <path d="M478.587,8.392C469.841,45.382 551.906,-9.943 532.984,44.643" style="fill:none;stroke:#c33;stroke-width:1.88px;stroke-dasharray:1.88,1.88;"/>
                <g transform="matrix(1.25,0,0,1.25,-348.606,-76.8879)">
                    <g transform="matrix(10,0,0,10,684.206,111.178)">
                        <path d="M0.071,-0.115L0.223,-0.115L0.223,-0.401L0.061,-0.401L0.061,-0.516L0.223,-0.516L0.223,-0.591C0.223,-0.635 0.236,-0.671 0.262,-0.699C0.287,-0.726 0.327,-0.74 0.381,-0.74L0.556,-0.74L0.556,-0.625L0.371,-0.625L0.371,-0.516L0.556,-0.516L0.556,-0.401L0.371,-0.401L0.371,-0.115L0.533,-0.115L0.533,-0L0.071,-0L0.071,-0.115Z" style="fill:#c33;fill-rule:nonzero;"/>
                    </g>
                    <g transform="matrix(10,0,0,10,690.206,111.178)">
                        <path d="M0.332,-0.582C0.299,-0.582 0.276,-0.589 0.263,-0.603C0.249,-0.616 0.243,-0.633 0.243,-0.652L0.243,-0.681C0.243,-0.701 0.249,-0.718 0.263,-0.731C0.276,-0.744 0.299,-0.751 0.332,-0.751C0.365,-0.751 0.389,-0.744 0.402,-0.731C0.415,-0.718 0.421,-0.701 0.421,-0.681L0.421,-0.652C0.421,-0.633 0.415,-0.616 0.402,-0.603C0.389,-0.589 0.365,-0.582 0.332,-0.582ZM0.094,-0.115L0.258,-0.115L0.258,-0.401L0.094,-0.401L0.094,-0.516L0.406,-0.516L0.406,-0.115L0.558,-0.115L0.558,-0L0.094,-0L0.094,-0.115Z" style="fill:#c33;fill-rule:nonzero;"/>
                    </g>
                    <g transform="matrix(10,0,0,10,696.206,111.178)">
                        <path d="M0.065,-0L0.065,-0.516L0.213,-0.516L0.213,-0.422L0.219,-0.422C0.225,-0.437 0.232,-0.45 0.241,-0.463C0.25,-0.476 0.26,-0.487 0.273,-0.497C0.285,-0.506 0.299,-0.514 0.316,-0.52C0.332,-0.525 0.35,-0.528 0.371,-0.528C0.396,-0.528 0.418,-0.524 0.439,-0.516C0.46,-0.507 0.477,-0.495 0.492,-0.478C0.507,-0.461 0.518,-0.441 0.527,-0.417C0.535,-0.393 0.539,-0.365 0.539,-0.334L0.539,-0L0.391,-0L0.391,-0.314C0.391,-0.381 0.362,-0.414 0.304,-0.414C0.293,-0.414 0.282,-0.413 0.271,-0.41C0.26,-0.407 0.25,-0.402 0.241,-0.396C0.232,-0.389 0.226,-0.381 0.221,-0.372C0.216,-0.363 0.213,-0.352 0.213,-0.339L0.213,-0L0.065,-0Z" style="fill:#c33;fill-rule:nonzero;"/>
                    </g>
                    <g transform="matrix(10,0,0,10,702.206,111.178)">
                        <path d="M0.487,-0C0.456,-0 0.432,-0.008 0.413,-0.024C0.394,-0.039 0.383,-0.062 0.38,-0.091L0.375,-0.091C0.366,-0.057 0.347,-0.031 0.32,-0.014C0.292,0.003 0.258,0.012 0.218,0.012C0.168,0.012 0.128,-0.002 0.098,-0.029C0.067,-0.056 0.052,-0.093 0.052,-0.142C0.052,-0.196 0.072,-0.236 0.111,-0.262C0.15,-0.288 0.208,-0.301 0.284,-0.301L0.367,-0.301L0.367,-0.327C0.367,-0.358 0.36,-0.381 0.346,-0.397C0.331,-0.412 0.307,-0.42 0.273,-0.42C0.242,-0.42 0.216,-0.414 0.197,-0.402C0.178,-0.39 0.161,-0.374 0.147,-0.355L0.066,-0.427C0.083,-0.456 0.111,-0.481 0.148,-0.5C0.185,-0.519 0.232,-0.528 0.29,-0.528C0.361,-0.528 0.416,-0.512 0.456,-0.48C0.495,-0.447 0.515,-0.398 0.515,-0.333L0.515,-0.107L0.572,-0.107L0.572,-0L0.487,-0ZM0.274,-0.085C0.3,-0.085 0.322,-0.091 0.34,-0.104C0.358,-0.117 0.367,-0.135 0.367,-0.159L0.367,-0.221L0.288,-0.221C0.227,-0.221 0.197,-0.201 0.197,-0.16L0.197,-0.14C0.197,-0.122 0.204,-0.108 0.218,-0.099C0.232,-0.09 0.251,-0.085 0.274,-0.085Z" style="fill:#c33;fill-rule:nonzero;"/>
                    </g>
                    <g transform="matrix(10,0,0,10,708.206,111.178)">
                        <path d="M0.068,-0.115L0.226,-0.115L0.226,-0.625L0.068,-0.625L0.068,-0.74L0.374,-0.74L0.374,-0.115L0.532,-0.115L0.532,-0L0.068,-0L0.068,-0.115Z" style="fill:#c33;fill-rule:nonzero;"/>
                    </g>
                    <g transform="matrix(10,0,0,10,714.206,111.178)">
                        <path d="M0.174,-0.311C0.174,-0.36 0.18,-0.407 0.191,-0.452C0.202,-0.497 0.217,-0.538 0.236,-0.577C0.255,-0.616 0.277,-0.651 0.302,-0.682C0.327,-0.713 0.354,-0.739 0.382,-0.76L0.53,-0.76C0.499,-0.739 0.469,-0.714 0.441,-0.686C0.413,-0.657 0.389,-0.626 0.368,-0.592C0.347,-0.558 0.33,-0.522 0.317,-0.483C0.304,-0.444 0.298,-0.404 0.298,-0.362L0.298,-0.26C0.298,-0.218 0.304,-0.178 0.317,-0.139C0.33,-0.1 0.347,-0.064 0.368,-0.03C0.389,0.004 0.413,0.035 0.441,0.064C0.469,0.092 0.499,0.117 0.53,0.138L0.382,0.138C0.354,0.117 0.327,0.091 0.302,0.06C0.277,0.029 0.255,-0.006 0.236,-0.045C0.217,-0.084 0.202,-0.126 0.191,-0.171C0.18,-0.216 0.174,-0.262 0.174,-0.311Z" style="fill:#c33;fill-rule:nonzero;"/>
                    </g>
                    <g transform="matrix(10,0,0,10,720.206,111.178)">
                        <path d="M0.077,-0.698L0.322,-0.698C0.391,-0.698 0.443,-0.681 0.48,-0.648C0.516,-0.615 0.534,-0.569 0.534,-0.512C0.534,-0.472 0.524,-0.44 0.505,-0.417C0.485,-0.393 0.457,-0.376 0.42,-0.365L0.42,-0.359C0.463,-0.348 0.497,-0.33 0.521,-0.303C0.544,-0.276 0.556,-0.239 0.556,-0.192C0.556,-0.133 0.538,-0.087 0.501,-0.052C0.464,-0.017 0.412,-0 0.345,-0L0.077,-0L0.077,-0.698ZM0.299,-0.105C0.335,-0.105 0.361,-0.111 0.378,-0.123C0.395,-0.135 0.403,-0.157 0.403,-0.189L0.403,-0.218C0.403,-0.25 0.395,-0.272 0.378,-0.284C0.361,-0.296 0.335,-0.302 0.299,-0.302L0.223,-0.302L0.223,-0.105L0.299,-0.105ZM0.28,-0.402C0.315,-0.402 0.341,-0.408 0.357,-0.42C0.373,-0.431 0.381,-0.452 0.381,-0.483L0.381,-0.513C0.381,-0.544 0.373,-0.565 0.357,-0.576C0.341,-0.587 0.315,-0.593 0.28,-0.593L0.223,-0.593L0.223,-0.402L0.28,-0.402Z" style="fill:#c33;fill-rule:nonzero;"/>
                    </g>
                    <g transform="matrix(5.83,0,0,5.83,726.206,114.508)">
                        <path d="M0.08,-0L0.08,-0.698L0.543,-0.698L0.543,-0.575L0.23,-0.575L0.23,-0.415L0.51,-0.415L0.51,-0.292L0.23,-0.292L0.23,-0L0.08,-0Z" style="fill:#c33;fill-rule:nonzero;"/>
                    </g>
                    <g transform="matrix(5.83,0,0,5.83,729.704,114.508)">
                        <path d="M0.236,-0.062L0.236,-0.246L0.062,-0.246L0.062,-0.364L0.236,-0.364L0.236,-0.548L0.364,-0.548L0.364,-0.364L0.538,-0.364L0.538,-0.246L0.364,-0.246L0.364,-0.062L0.236,-0.062Z" style="fill:#c33;fill-rule:nonzero;"/>
                    </g>
                    <g transform="matrix(5.83,0,0,5.83,733.202,114.508)">
                        <path d="M0.34,-0C0.287,-0 0.247,-0.014 0.221,-0.042C0.195,-0.07 0.182,-0.106 0.182,-0.149L0.182,-0.401L0.042,-0.401L0.042,-0.516L0.133,-0.516C0.155,-0.516 0.171,-0.52 0.18,-0.529C0.189,-0.538 0.194,-0.554 0.194,-0.577L0.194,-0.698L0.33,-0.698L0.33,-0.516L0.531,-0.516L0.531,-0.401L0.33,-0.401L0.33,-0.115L0.531,-0.115L0.531,-0L0.34,-0Z" style="fill:#c33;fill-rule:nonzero;"/>
                    </g>
                    <g transform="matrix(10,0,0,10,736.7,111.178)">
                        <path d="M0.426,-0.311C0.426,-0.262 0.421,-0.216 0.41,-0.171C0.399,-0.126 0.384,-0.084 0.365,-0.045C0.345,-0.006 0.323,0.029 0.298,0.06C0.273,0.091 0.246,0.117 0.218,0.138L0.07,0.138C0.101,0.117 0.13,0.092 0.159,0.064C0.187,0.035 0.212,0.004 0.233,-0.03C0.254,-0.064 0.27,-0.1 0.283,-0.139C0.296,-0.178 0.302,-0.218 0.302,-0.26L0.302,-0.362C0.302,-0.404 0.296,-0.444 0.283,-0.483C0.27,-0.522 0.254,-0.558 0.233,-0.592C0.212,-0.626 0.187,-0.657 0.159,-0.686C0.13,-0.714 0.101,-0.739 0.07,-0.76L0.218,-0.76C0.246,-0.739 0.273,-0.713 0.298,-0.682C0.323,-0.651 0.345,-0.616 0.365,-0.577C0.384,-0.538 0.399,-0.497 0.41,-0.452C0.421,-0.407 0.426,-0.36 0.426,-0.311Z" style="fill:#c33;fill-rule:nonzero;"/>
                    </g>
                </g>
            </g>
        </g>
        <g>
            <g id="synced">
                <path d="M586.862,20.99L588.446,17.385L592.051,18.969" style="fill:none;stroke:#c33;stroke-width:1.88px;stroke-linejoin:miter;stroke-miterlimit:10;"/>
                <path d="M577.241,118.65C592.126,141.301 633.276,132.881 588.446,17.385" style="fill:none;stroke:#c33;stroke-width:1.88px;stroke-dasharray:1.88,1.88;"/>
                <g transform="matrix(1.25,0,0,1.25,-294.579,-127.975)">
                    <g transform="matrix(10,0,0,10,684.206,111.178)">
                        <path d="M0.294,0.012C0.237,0.012 0.187,0.003 0.145,-0.014C0.102,-0.031 0.07,-0.055 0.049,-0.085L0.132,-0.162C0.152,-0.14 0.175,-0.123 0.203,-0.111C0.23,-0.098 0.26,-0.092 0.295,-0.092C0.324,-0.092 0.347,-0.096 0.364,-0.106C0.381,-0.115 0.389,-0.128 0.389,-0.147C0.389,-0.162 0.383,-0.172 0.372,-0.178C0.361,-0.183 0.345,-0.188 0.325,-0.191L0.242,-0.204C0.219,-0.207 0.197,-0.213 0.177,-0.22C0.157,-0.227 0.14,-0.236 0.125,-0.248C0.11,-0.26 0.099,-0.275 0.09,-0.292C0.081,-0.309 0.077,-0.33 0.077,-0.355C0.077,-0.409 0.098,-0.451 0.139,-0.482C0.18,-0.513 0.238,-0.528 0.313,-0.528C0.364,-0.528 0.407,-0.521 0.443,-0.508C0.478,-0.494 0.507,-0.474 0.528,-0.449L0.454,-0.365C0.439,-0.382 0.419,-0.396 0.395,-0.407C0.371,-0.418 0.342,-0.424 0.308,-0.424C0.251,-0.424 0.222,-0.407 0.222,-0.372C0.222,-0.357 0.228,-0.346 0.239,-0.341C0.25,-0.335 0.266,-0.33 0.286,-0.327L0.368,-0.314C0.391,-0.311 0.413,-0.306 0.433,-0.299C0.453,-0.292 0.47,-0.282 0.486,-0.27C0.501,-0.258 0.512,-0.243 0.521,-0.226C0.53,-0.209 0.534,-0.188 0.534,-0.163C0.534,-0.109 0.513,-0.066 0.472,-0.035C0.43,-0.004 0.371,0.012 0.294,0.012Z" style="fill:#c33;fill-rule:nonzero;"/>
                    </g>
                    <g transform="matrix(10,0,0,10,690.206,111.178)">
                        <path d="M0.43,-0.516L0.581,-0.516L0.338,0.083C0.323,0.121 0.302,0.15 0.277,0.17C0.252,0.19 0.217,0.2 0.173,0.2L0.071,0.2L0.071,0.085L0.195,0.085L0.227,-0.003L0.019,-0.516L0.178,-0.516L0.253,-0.299L0.3,-0.149L0.308,-0.149L0.353,-0.299L0.43,-0.516Z" style="fill:#c33;fill-rule:nonzero;"/>
                    </g>
                    <g transform="matrix(10,0,0,10,696.206,111.178)">
                        <path d="M0.065,-0L0.065,-0.516L0.213,-0.516L0.213,-0.422L0.219,-0.422C0.225,-0.437 0.232,-0.45 0.241,-0.463C0.25,-0.476 0.26,-0.487 0.273,-0.497C0.285,-0.506 0.299,-0.514 0.316,-0.52C0.332,-0.525 0.35,-0.528 0.371,-0.528C0.396,-0.528 0.418,-0.524 0.439,-0.516C0.46,-0.507 0.477,-0.495 0.492,-0.478C0.507,-0.461 0.518,-0.441 0.527,-0.417C0.535,-0.393 0.539,-0.365 0.539,-0.334L0.539,-0L0.391,-0L0.391,-0.314C0.391,-0.381 0.362,-0.414 0.304,-0.414C0.293,-0.414 0.282,-0.413 0.271,-0.41C0.26,-0.407 0.25,-0.402 0.241,-0.396C0.232,-0.389 0.226,-0.381 0.221,-0.372C0.216,-0.363 0.213,-0.352 0.213,-0.339L0.213,-0L0.065,-0Z" style="fill:#c33;fill-rule:nonzero;"/>
                    </g>
                    <g transform="matrix(10,0,0,10,702.206,111.178)">
                        <path d="M0.321,0.012C0.28,0.012 0.244,0.006 0.212,-0.007C0.179,-0.019 0.152,-0.037 0.13,-0.06C0.107,-0.083 0.09,-0.112 0.078,-0.145C0.066,-0.178 0.06,-0.216 0.06,-0.258C0.06,-0.3 0.066,-0.338 0.078,-0.371C0.09,-0.404 0.107,-0.433 0.13,-0.456C0.152,-0.479 0.179,-0.497 0.212,-0.51C0.244,-0.522 0.28,-0.528 0.32,-0.528C0.377,-0.528 0.422,-0.517 0.457,-0.494C0.491,-0.47 0.517,-0.44 0.535,-0.402L0.421,-0.34C0.412,-0.36 0.4,-0.377 0.385,-0.39C0.37,-0.403 0.348,-0.41 0.32,-0.41C0.286,-0.41 0.26,-0.4 0.242,-0.381C0.223,-0.361 0.214,-0.334 0.214,-0.3L0.214,-0.216C0.214,-0.182 0.223,-0.155 0.242,-0.136C0.26,-0.116 0.287,-0.106 0.322,-0.106C0.351,-0.106 0.373,-0.113 0.39,-0.126C0.406,-0.139 0.42,-0.157 0.431,-0.178L0.543,-0.114C0.524,-0.076 0.497,-0.046 0.462,-0.023C0.426,0.001 0.379,0.012 0.321,0.012Z" style="fill:#c33;fill-rule:nonzero;"/>
                    </g>
                    <g transform="matrix(10,0,0,10,708.206,111.178)">
                        <path d="M0.314,0.012C0.227,0.012 0.162,-0.012 0.117,-0.06C0.072,-0.108 0.05,-0.173 0.05,-0.256C0.05,-0.298 0.056,-0.336 0.068,-0.37C0.079,-0.403 0.096,-0.432 0.118,-0.456C0.139,-0.479 0.166,-0.497 0.197,-0.51C0.228,-0.522 0.262,-0.528 0.301,-0.528C0.34,-0.528 0.374,-0.522 0.405,-0.51C0.436,-0.497 0.462,-0.48 0.483,-0.457C0.504,-0.434 0.521,-0.407 0.533,-0.375C0.544,-0.342 0.55,-0.306 0.55,-0.266L0.55,-0.222L0.197,-0.222L0.197,-0.213C0.197,-0.18 0.207,-0.153 0.228,-0.133C0.249,-0.112 0.279,-0.102 0.319,-0.102C0.35,-0.102 0.376,-0.108 0.398,-0.12C0.42,-0.131 0.439,-0.147 0.455,-0.166L0.535,-0.079C0.515,-0.054 0.487,-0.033 0.451,-0.015C0.415,0.003 0.369,0.012 0.314,0.012ZM0.302,-0.422C0.27,-0.422 0.245,-0.412 0.226,-0.393C0.207,-0.373 0.197,-0.346 0.197,-0.313L0.197,-0.305L0.405,-0.305L0.405,-0.313C0.405,-0.347 0.396,-0.374 0.378,-0.393C0.359,-0.412 0.334,-0.422 0.302,-0.422Z" style="fill:#c33;fill-rule:nonzero;"/>
                    </g>
                    <g transform="matrix(10,0,0,10,714.206,111.178)">
                        <path d="M0.393,-0.094L0.386,-0.094C0.373,-0.063 0.354,-0.037 0.331,-0.018C0.307,0.002 0.274,0.012 0.233,0.012C0.204,0.012 0.178,0.007 0.155,-0.004C0.131,-0.015 0.111,-0.031 0.094,-0.053C0.077,-0.075 0.063,-0.103 0.054,-0.137C0.044,-0.171 0.039,-0.211 0.039,-0.258C0.039,-0.305 0.044,-0.345 0.054,-0.379C0.063,-0.413 0.077,-0.441 0.094,-0.463C0.111,-0.485 0.131,-0.501 0.155,-0.512C0.178,-0.523 0.204,-0.528 0.233,-0.528C0.254,-0.528 0.272,-0.525 0.288,-0.52C0.304,-0.515 0.318,-0.507 0.331,-0.498C0.343,-0.489 0.354,-0.478 0.363,-0.465C0.372,-0.452 0.379,-0.437 0.386,-0.422L0.393,-0.422L0.393,-0.74L0.541,-0.74L0.541,-0L0.393,-0L0.393,-0.094ZM0.297,-0.103C0.323,-0.103 0.345,-0.109 0.365,-0.122C0.384,-0.135 0.393,-0.155 0.393,-0.182L0.393,-0.334C0.393,-0.361 0.384,-0.381 0.365,-0.394C0.345,-0.407 0.323,-0.413 0.297,-0.413C0.264,-0.413 0.238,-0.403 0.22,-0.383C0.202,-0.362 0.193,-0.334 0.193,-0.298L0.193,-0.218C0.193,-0.182 0.202,-0.154 0.22,-0.134C0.238,-0.113 0.264,-0.103 0.297,-0.103Z" style="fill:#c33;fill-rule:nonzero;"/>
                    </g>
                    <g transform="matrix(10,0,0,10,720.206,111.178)">
                        <path d="M0.174,-0.311C0.174,-0.36 0.18,-0.407 0.191,-0.452C0.202,-0.497 0.217,-0.538 0.236,-0.577C0.255,-0.616 0.277,-0.651 0.302,-0.682C0.327,-0.713 0.354,-0.739 0.382,-0.76L0.53,-0.76C0.499,-0.739 0.469,-0.714 0.441,-0.686C0.413,-0.657 0.389,-0.626 0.368,-0.592C0.347,-0.558 0.33,-0.522 0.317,-0.483C0.304,-0.444 0.298,-0.404 0.298,-0.362L0.298,-0.26C0.298,-0.218 0.304,-0.178 0.317,-0.139C0.33,-0.1 0.347,-0.064 0.368,-0.03C0.389,0.004 0.413,0.035 0.441,0.064C0.469,0.092 0.499,0.117 0.53,0.138L0.382,0.138C0.354,0.117 0.327,0.091 0.302,0.06C0.277,0.029 0.255,-0.006 0.236,-0.045C0.217,-0.084 0.202,-0.126 0.191,-0.171C0.18,-0.216 0.174,-0.262 0.174,-0.311Z" style="fill:#c33;fill-rule:nonzero;"/>
                    </g>
                    <g transform="matrix(10,0,0,10,726.206,111.178)">
                        <path d="M0.077,-0.698L0.322,-0.698C0.391,-0.698 0.443,-0.681 0.48,-0.648C0.516,-0.615 0.534,-0.569 0.534,-0.512C0.534,-0.472 0.524,-0.44 0.505,-0.417C0.485,-0.393 0.457,-0.376 0.42,-0.365L0.42,-0.359C0.463,-0.348 0.497,-0.33 0.521,-0.303C0.544,-0.276 0.556,-0.239 0.556,-0.192C0.556,-0.133 0.538,-0.087 0.501,-0.052C0.464,-0.017 0.412,-0 0.345,-0L0.077,-0L0.077,-0.698ZM0.299,-0.105C0.335,-0.105 0.361,-0.111 0.378,-0.123C0.395,-0.135 0.403,-0.157 0.403,-0.189L0.403,-0.218C0.403,-0.25 0.395,-0.272 0.378,-0.284C0.361,-0.296 0.335,-0.302 0.299,-0.302L0.223,-0.302L0.223,-0.105L0.299,-0.105ZM0.28,-0.402C0.315,-0.402 0.341,-0.408 0.357,-0.42C0.373,-0.431 0.381,-0.452 0.381,-0.483L0.381,-0.513C0.381,-0.544 0.373,-0.565 0.357,-0.576C0.341,-0.587 0.315,-0.593 0.28,-0.593L0.223,-0.593L0.223,-0.402L0.28,-0.402Z" style="fill:#c33;fill-rule:nonzero;"/>
                    </g>
                    <g transform="matrix(5.83,0,0,5.83,732.206,114.508)">
                        <path d="M0.08,-0L0.08,-0.698L0.543,-0.698L0.543,-0.575L0.23,-0.575L0.23,-0.415L0.51,-0.415L0.51,-0.292L0.23,-0.292L0.23,-0L0.08,-0Z" style="fill:#c33;fill-rule:nonzero;"/>
                    </g>
                    <g transform="matrix(5.83,0,0,5.83,735.704,114.508)">
                        <path d="M0.236,-0.062L0.236,-0.246L0.062,-0.246L0.062,-0.364L0.236,-0.364L0.236,-0.548L0.364,-0.548L0.364,-0.364L0.538,-0.364L0.538,-0.246L0.364,-0.246L0.364,-0.062L0.236,-0.062Z" style="fill:#c33;fill-rule:nonzero;"/>
                    </g>
                    <g transform="matrix(5.83,0,0,5.83,739.202,114.508)">
                        <path d="M0.34,-0C0.287,-0 0.247,-0.014 0.221,-0.042C0.195,-0.07 0.182,-0.106 0.182,-0.149L0.182,-0.401L0.042,-0.401L0.042,-0.516L0.133,-0.516C0.155,-0.516 0.171,-0.52 0.18,-0.529C0.189,-0.538 0.194,-0.554 0.194,-0.577L0.194,-0.698L0.33,-0.698L0.33,-0.516L0.531,-0.516L0.531,-0.401L0.33,-0.401L0.33,-0.115L0.531,-0.115L0.531,-0L0.34,-0Z" style="fill:#c33;fill-rule:nonzero;"/>
                    </g>
                    <g transform="matrix(10,0,0,10,742.7,111.178)">
                        <path d="M0.426,-0.311C0.426,-0.262 0.421,-0.216 0.41,-0.171C0.399,-0.126 0.384,-0.084 0.365,-0.045C0.345,-0.006 0.323,0.029 0.298,0.06C0.273,0.091 0.246,0.117 0.218,0.138L0.07,0.138C0.101,0.117 0.13,0.092 0.159,0.064C0.187,0.035 0.212,0.004 0.233,-0.03C0.254,-0.064 0.27,-0.1 0.283,-0.139C0.296,-0.178 0.302,-0.218 0.302,-0.26L0.302,-0.362C0.302,-0.404 0.296,-0.444 0.283,-0.483C0.27,-0.522 0.254,-0.558 0.233,-0.592C0.212,-0.626 0.187,-0.657 0.159,-0.686C0.13,-0.714 0.101,-0.739 0.07,-0.76L0.218,-0.76C0.246,-0.739 0.273,-0.713 0.298,-0.682C0.323,-0.651 0.345,-0.616 0.365,-0.577C0.384,-0.538 0.399,-0.497 0.41,-0.452C0.421,-0.407 0.426,-0.36 0.426,-0.311Z" style="fill:#c33;fill-rule:nonzero;"/>
                    </g>
                </g>
            </g>
            <g>
                <circle cx="597.523" cy="41.996" r="10.36" style="fill:none;stroke:#000;stroke-width:1.88px;"/>
                <circle cx="597.523" cy="41.996" r="10.36" style="fill:#fff;"/>
                <path id="_21" serif:id="2" d="M598.282,47.089L598.282,45.119L593.569,45.119L593.569,43.484L597.728,36.904L600.106,36.904L600.106,43.63L601.478,43.63L601.478,45.119L600.106,45.119L600.106,47.089L598.282,47.089ZM595.13,43.63L598.282,43.63L598.282,38.771L598.165,38.771L595.13,43.63Z" style="fill-rule:nonzero;"/>
            </g>
        </g>
        <path id="sync-line-2" serif:id="sync line 2" d="M539.732,132.295L543.482,136.045L539.732,139.795" style="fill:none;stroke:#000;stroke-width:2.5px;stroke-linejoin:miter;stroke-miterlimit:10;"/>
        <path d="M134,158.496L513.375,158.496L527.75,136.045L543.482,136.045" style="fill:none;stroke:#000;stroke-width:2.5px;"/>
        <g id="sync-line-1" serif:id="sync line 1">
            <path d="M66.064,139.874L62.314,136.124L66.064,132.374" style="fill:none;stroke:#000;stroke-width:2.5px;stroke-linejoin:miter;stroke-miterlimit:10;"/>
            <path d="M349.837,136.124L62.314,136.124" style="fill:none;stroke:#000;stroke-width:2.5px;"/>
        </g>
        <g>
            <circle cx="272.912" cy="136.124" r="10.36" style="fill:none;stroke:#000;stroke-width:1.88px;"/>
            <circle cx="272.912" cy="136.124" r="10.36" style="fill:#fff;"/>
            <path id="_22" serif:id="2" d="M276.589,141.304L269.41,141.304L269.41,139.524L272.678,136.737C273.223,136.27 273.627,135.844 273.889,135.46C274.152,135.076 274.283,134.665 274.283,134.227L274.283,134.081C274.283,133.595 274.147,133.225 273.875,132.972C273.602,132.719 273.223,132.593 272.737,132.593C272.202,132.593 271.793,132.739 271.511,133.03C271.229,133.322 271.025,133.682 270.898,134.11L269.235,133.483C269.342,133.152 269.495,132.833 269.694,132.527C269.894,132.221 270.142,131.951 270.438,131.717C270.735,131.484 271.088,131.296 271.496,131.155C271.905,131.014 272.372,130.944 272.897,130.944C273.442,130.944 273.926,131.019 274.349,131.17C274.772,131.321 275.13,131.53 275.421,131.797C275.713,132.065 275.935,132.383 276.085,132.753C276.236,133.123 276.312,133.526 276.312,133.964C276.312,134.383 276.246,134.767 276.115,135.117C275.983,135.467 275.801,135.8 275.567,136.116C275.334,136.433 275.059,136.737 274.743,137.028C274.427,137.32 274.084,137.612 273.714,137.904L271.496,139.699L276.589,139.699L276.589,141.304Z" style="fill-rule:nonzero;"/>
        </g>
        <g>
            <circle cx="187.807" cy="158.496" r="10.36" style="fill:none;stroke:#000;stroke-width:1.88px;"/>
            <circle cx="187.807" cy="158.496" r="10.36" style="fill:#fff;"/>
            <path id="_23" serif:id="2" d="M187.58,157.518C188.193,157.518 188.643,157.397 188.93,157.154C189.217,156.91 189.361,156.604 189.361,156.234L189.361,156.132C189.361,155.714 189.222,155.388 188.945,155.155C188.667,154.921 188.286,154.804 187.799,154.804C187.332,154.804 186.924,154.911 186.574,155.125C186.223,155.339 185.922,155.641 185.669,156.03L184.429,154.921C184.604,154.688 184.801,154.466 185.02,154.257C185.238,154.048 185.487,153.868 185.764,153.717C186.041,153.567 186.35,153.447 186.69,153.36C187.031,153.272 187.42,153.229 187.858,153.229C188.373,153.229 188.847,153.289 189.28,153.411C189.713,153.533 190.083,153.71 190.389,153.944C190.696,154.177 190.934,154.457 191.104,154.783C191.274,155.108 191.36,155.476 191.36,155.884C191.36,156.205 191.306,156.497 191.199,156.76C191.092,157.022 190.949,157.251 190.769,157.445C190.589,157.64 190.38,157.801 190.141,157.927C189.903,158.053 189.648,158.146 189.375,158.204L189.375,158.277C189.677,158.336 189.959,158.43 190.221,158.562C190.484,158.693 190.713,158.861 190.907,159.065C191.102,159.269 191.257,159.515 191.374,159.802C191.491,160.089 191.549,160.412 191.549,160.772C191.549,161.22 191.457,161.628 191.272,161.998C191.087,162.368 190.827,162.684 190.491,162.946C190.156,163.209 189.752,163.411 189.28,163.552C188.809,163.693 188.281,163.764 187.697,163.764C187.211,163.764 186.778,163.713 186.398,163.61C186.019,163.508 185.684,163.37 185.392,163.195C185.1,163.019 184.847,162.818 184.633,162.589C184.419,162.36 184.229,162.124 184.064,161.881L185.479,160.787C185.722,161.195 186.012,161.531 186.347,161.794C186.683,162.056 187.143,162.188 187.726,162.188C188.31,162.188 188.76,162.054 189.076,161.786C189.392,161.519 189.55,161.147 189.55,160.67L189.55,160.553C189.55,160.087 189.38,159.729 189.04,159.481C188.699,159.233 188.218,159.109 187.595,159.109L186.574,159.109L186.574,157.518L187.58,157.518Z" style="fill-rule:nonzero;"/>
        </g>
    </g>
    <g id="beacon-chain-2" serif:id="beacon chain 2">
    </g>
    <g id="beacon-chain-1" serif:id="beacon chain 1">
    </g>
</svg>
